<?xml version="1.0" encoding="UTF-8"?>
<svg xmlns="http://www.w3.org/2000/svg"
     xmlns:xlink="http://www.w3.org/1999/xlink"
     xmlns:gadfly="http://www.gadflyjl.org/ns"
     version="1.2"
     width="250mm" height="200mm" viewBox="0 0 250 200"
     stroke="none"
     fill="#000000"
     stroke-width="0.3"
     font-size="3.88"
>
<g class="plotroot yscalable" id="img-4b4105b3-1">
  <g font-size="3.88" font-family="'PT Sans','Helvetica Neue','Helvetica',sans-serif" fill="#564A55" stroke="#000000" stroke-opacity="0.000" id="img-4b4105b3-2">
    <text x="193.98" y="188.39" text-anchor="middle" dy="0.6em">Delay to each Observer</text>
  </g>
  <g class="guide xlabels" font-size="2.82" font-family="'PT Sans Caption','Helvetica Neue','Helvetica',sans-serif" fill="#6C606B" id="img-4b4105b3-3">
    <text x="146.15" y="181.71" text-anchor="middle" dy="0.6em">1</text>
    <text x="152.52" y="181.71" text-anchor="middle" dy="0.6em">2</text>
    <text x="158.9" y="181.71" text-anchor="middle" dy="0.6em">3</text>
    <text x="165.28" y="181.71" text-anchor="middle" dy="0.6em">4</text>
    <text x="171.66" y="181.71" text-anchor="middle" dy="0.6em">5</text>
    <text x="178.04" y="181.71" text-anchor="middle" dy="0.6em">6</text>
    <text x="184.41" y="181.71" text-anchor="middle" dy="0.6em">7</text>
    <text x="190.79" y="181.71" text-anchor="middle" dy="0.6em">8</text>
    <text x="197.17" y="181.71" text-anchor="middle" dy="0.6em">9</text>
    <text x="203.55" y="181.71" text-anchor="middle" dy="0.6em">10</text>
    <text x="209.92" y="181.71" text-anchor="middle" dy="0.6em">11</text>
    <text x="216.3" y="181.71" text-anchor="middle" dy="0.6em">12</text>
    <text x="222.68" y="181.71" text-anchor="middle" dy="0.6em">13</text>
    <text x="229.06" y="181.71" text-anchor="middle" dy="0.6em">14</text>
    <text x="235.43" y="181.71" text-anchor="middle" dy="0.6em">15</text>
    <text x="241.81" y="181.71" text-anchor="middle" dy="0.6em">16</text>
  </g>
<g clip-path="url(#img-4b4105b3-4)">
  <g id="img-4b4105b3-5">
    <g pointer-events="visible" opacity="1" fill="#000000" fill-opacity="0.000" stroke="#000000" stroke-opacity="0.000" class="guide background" id="img-4b4105b3-6">
      <rect x="142.96" y="145.94" width="102.04" height="34.77"/>
    </g>
    <g class="guide ygridlines xfixed" stroke-dasharray="0.5,0.5" stroke-width="0.2" stroke="#D0D0E0" id="img-4b4105b3-7">
      <path fill="none" d="M142.96,178.71 L 245 178.71"/>
      <path fill="none" d="M142.96,168.46 L 245 168.46"/>
      <path fill="none" d="M142.96,158.2 L 245 158.2"/>
      <path fill="none" d="M142.96,147.94 L 245 147.94"/>
    </g>
    <g class="guide xgridlines yfixed" stroke-dasharray="0.5,0.5" stroke-width="0.2" stroke="#D0D0E0" id="img-4b4105b3-8">
      <path fill="none" d="M149.34,145.94 L 149.34 180.71"/>
      <path fill="none" d="M155.71,145.94 L 155.71 180.71"/>
      <path fill="none" d="M162.09,145.94 L 162.09 180.71"/>
      <path fill="none" d="M168.47,145.94 L 168.47 180.71"/>
      <path fill="none" d="M174.85,145.94 L 174.85 180.71"/>
      <path fill="none" d="M181.22,145.94 L 181.22 180.71"/>
      <path fill="none" d="M187.6,145.94 L 187.6 180.71"/>
      <path fill="none" d="M193.98,145.94 L 193.98 180.71"/>
      <path fill="none" d="M200.36,145.94 L 200.36 180.71"/>
      <path fill="none" d="M206.73,145.94 L 206.73 180.71"/>
      <path fill="none" d="M213.11,145.94 L 213.11 180.71"/>
      <path fill="none" d="M219.49,145.94 L 219.49 180.71"/>
      <path fill="none" d="M225.87,145.94 L 225.87 180.71"/>
      <path fill="none" d="M232.24,145.94 L 232.24 180.71"/>
      <path fill="none" d="M238.62,145.94 L 238.62 180.71"/>
    </g>
    <g class="plotpanel" id="img-4b4105b3-9">
      <g shape-rendering="crispEdges" stroke-width="0.3" id="img-4b4105b3-10">
        <g stroke="#000000" stroke-opacity="0.000" fill="#00BFFF" class="geometry" id="img-4b4105b3-11">
          <rect x="142.93" y="155.49" width="6.43" height="23.22"/>
          <rect x="149.31" y="158.6" width="6.43" height="20.12"/>
          <rect x="155.69" y="158.6" width="6.43" height="20.12"/>
          <rect x="162.07" y="155.49" width="6.43" height="23.22"/>
          <rect x="168.44" y="161.88" width="6.43" height="16.84"/>
          <rect x="174.82" y="166.52" width="6.43" height="12.2"/>
          <rect x="181.2" y="166.52" width="6.43" height="12.2"/>
          <rect x="187.58" y="161.88" width="6.43" height="16.84"/>
          <rect x="193.95" y="165.98" width="6.43" height="12.74"/>
          <rect x="200.33" y="173.46" width="6.43" height="5.25"/>
          <rect x="206.71" y="173.46" width="6.43" height="5.25"/>
          <rect x="213.09" y="165.98" width="6.43" height="12.74"/>
          <rect x="219.46" y="165.46" width="6.43" height="13.26"/>
          <rect x="225.84" y="172.31" width="6.43" height="6.41"/>
          <rect x="232.22" y="172.31" width="6.43" height="6.41"/>
          <rect x="238.6" y="165.46" width="6.43" height="13.26"/>
        </g>
      </g>
    </g>
  </g>
</g>
  <g class="guide ylabels" font-size="2.82" font-family="'PT Sans Caption','Helvetica Neue','Helvetica',sans-serif" fill="#6C606B" id="img-4b4105b3-12">
    <text x="141.96" y="178.71" text-anchor="end" dy="0.35em">0</text>
    <text x="141.96" y="168.46" text-anchor="end" dy="0.35em">5</text>
    <text x="141.96" y="158.2" text-anchor="end" dy="0.35em">10</text>
    <text x="141.96" y="147.94" text-anchor="end" dy="0.35em">15</text>
  </g>
  <g font-size="3.88" font-family="'PT Sans','Helvetica Neue','Helvetica',sans-serif" fill="#564A55" stroke="#000000" stroke-opacity="0.000" id="img-4b4105b3-13">
    <text x="133.81" y="161.33" text-anchor="middle" dy="0.35em" transform="rotate(-90, 133.81, 163.33)">Shift</text>
  </g>
  <g font-size="3.88" font-family="'PT Sans','Helvetica Neue','Helvetica',sans-serif" fill="#564A55" stroke="#000000" stroke-opacity="0.000" id="img-4b4105b3-14">
    <text x="193.98" y="143.94" text-anchor="middle">Ttrue</text>
  </g>
</g>
<g class="plotroot yscalable" id="img-4b4105b3-15">
  <g font-size="3.88" font-family="'PT Sans','Helvetica Neue','Helvetica',sans-serif" fill="#564A55" stroke="#000000" stroke-opacity="0.000" id="img-4b4105b3-16">
    <text x="193.98" y="121.72" text-anchor="middle" dy="0.6em">Delay to each Observer</text>
  </g>
  <g class="guide xlabels" font-size="2.82" font-family="'PT Sans Caption','Helvetica Neue','Helvetica',sans-serif" fill="#6C606B" id="img-4b4105b3-17">
    <text x="146.15" y="115.05" text-anchor="middle" dy="0.6em">1</text>
    <text x="152.52" y="115.05" text-anchor="middle" dy="0.6em">2</text>
    <text x="158.9" y="115.05" text-anchor="middle" dy="0.6em">3</text>
    <text x="165.28" y="115.05" text-anchor="middle" dy="0.6em">4</text>
    <text x="171.66" y="115.05" text-anchor="middle" dy="0.6em">5</text>
    <text x="178.04" y="115.05" text-anchor="middle" dy="0.6em">6</text>
    <text x="184.41" y="115.05" text-anchor="middle" dy="0.6em">7</text>
    <text x="190.79" y="115.05" text-anchor="middle" dy="0.6em">8</text>
    <text x="197.17" y="115.05" text-anchor="middle" dy="0.6em">9</text>
    <text x="203.55" y="115.05" text-anchor="middle" dy="0.6em">10</text>
    <text x="209.92" y="115.05" text-anchor="middle" dy="0.6em">11</text>
    <text x="216.3" y="115.05" text-anchor="middle" dy="0.6em">12</text>
    <text x="222.68" y="115.05" text-anchor="middle" dy="0.6em">13</text>
    <text x="229.06" y="115.05" text-anchor="middle" dy="0.6em">14</text>
    <text x="235.43" y="115.05" text-anchor="middle" dy="0.6em">15</text>
    <text x="241.81" y="115.05" text-anchor="middle" dy="0.6em">16</text>
  </g>
<g clip-path="url(#img-4b4105b3-18)">
  <g id="img-4b4105b3-19">
    <g pointer-events="visible" opacity="1" fill="#000000" fill-opacity="0.000" stroke="#000000" stroke-opacity="0.000" class="guide background" id="img-4b4105b3-20">
      <rect x="142.96" y="79.28" width="102.04" height="34.77"/>
    </g>
    <g class="guide ygridlines xfixed" stroke-dasharray="0.5,0.5" stroke-width="0.2" stroke="#D0D0E0" id="img-4b4105b3-21">
      <path fill="none" d="M142.96,112.05 L 245 112.05"/>
      <path fill="none" d="M142.96,101.79 L 245 101.79"/>
      <path fill="none" d="M142.96,91.53 L 245 91.53"/>
      <path fill="none" d="M142.96,81.28 L 245 81.28"/>
    </g>
    <g class="guide xgridlines yfixed" stroke-dasharray="0.5,0.5" stroke-width="0.2" stroke="#D0D0E0" id="img-4b4105b3-22">
      <path fill="none" d="M149.34,79.28 L 149.34 114.05"/>
      <path fill="none" d="M155.71,79.28 L 155.71 114.05"/>
      <path fill="none" d="M162.09,79.28 L 162.09 114.05"/>
      <path fill="none" d="M168.47,79.28 L 168.47 114.05"/>
      <path fill="none" d="M174.85,79.28 L 174.85 114.05"/>
      <path fill="none" d="M181.22,79.28 L 181.22 114.05"/>
      <path fill="none" d="M187.6,79.28 L 187.6 114.05"/>
      <path fill="none" d="M193.98,79.28 L 193.98 114.05"/>
      <path fill="none" d="M200.36,79.28 L 200.36 114.05"/>
      <path fill="none" d="M206.73,79.28 L 206.73 114.05"/>
      <path fill="none" d="M213.11,79.28 L 213.11 114.05"/>
      <path fill="none" d="M219.49,79.28 L 219.49 114.05"/>
      <path fill="none" d="M225.87,79.28 L 225.87 114.05"/>
      <path fill="none" d="M232.24,79.28 L 232.24 114.05"/>
      <path fill="none" d="M238.62,79.28 L 238.62 114.05"/>
    </g>
    <g class="plotpanel" id="img-4b4105b3-23">
      <g shape-rendering="crispEdges" stroke-width="0.3" id="img-4b4105b3-24">
        <g stroke="#000000" stroke-opacity="0.000" fill="#00BFFF" class="geometry" id="img-4b4105b3-25">
          <rect x="142.93" y="104.65" width="6.43" height="7.4"/>
          <rect x="149.31" y="104.65" width="6.43" height="7.4"/>
          <rect x="155.69" y="98.29" width="6.43" height="13.76"/>
          <rect x="162.07" y="90.63" width="6.43" height="21.42"/>
          <rect x="168.44" y="107.46" width="6.43" height="4.59"/>
          <rect x="174.82" y="107.46" width="6.43" height="4.59"/>
          <rect x="181.2" y="99.57" width="6.43" height="12.48"/>
          <rect x="187.58" y="91.43" width="6.43" height="20.62"/>
          <rect x="193.95" y="101" width="6.43" height="11.05"/>
          <rect x="200.33" y="101" width="6.43" height="11.05"/>
          <rect x="206.71" y="96.03" width="6.43" height="16.02"/>
          <rect x="213.09" y="89.11" width="6.43" height="22.93"/>
          <rect x="219.46" y="93.14" width="6.43" height="18.91"/>
          <rect x="225.84" y="93.14" width="6.43" height="18.91"/>
          <rect x="232.22" y="89.86" width="6.43" height="22.19"/>
          <rect x="238.6" y="84.45" width="6.43" height="27.6"/>
        </g>
      </g>
    </g>
  </g>
</g>
  <g class="guide ylabels" font-size="2.82" font-family="'PT Sans Caption','Helvetica Neue','Helvetica',sans-serif" fill="#6C606B" id="img-4b4105b3-26">
    <text x="141.96" y="112.05" text-anchor="end" dy="0.35em">0</text>
    <text x="141.96" y="101.79" text-anchor="end" dy="0.35em">5</text>
    <text x="141.96" y="91.53" text-anchor="end" dy="0.35em">10</text>
    <text x="141.96" y="81.28" text-anchor="end" dy="0.35em">15</text>
  </g>
  <g font-size="3.88" font-family="'PT Sans','Helvetica Neue','Helvetica',sans-serif" fill="#564A55" stroke="#000000" stroke-opacity="0.000" id="img-4b4105b3-27">
    <text x="133.81" y="94.66" text-anchor="middle" dy="0.35em" transform="rotate(-90, 133.81, 96.66)">Shift</text>
  </g>
  <g font-size="3.88" font-family="'PT Sans','Helvetica Neue','Helvetica',sans-serif" fill="#564A55" stroke="#000000" stroke-opacity="0.000" id="img-4b4105b3-28">
    <text x="193.98" y="77.28" text-anchor="middle">Ttrue</text>
  </g>
</g>
<g class="plotroot yscalable" id="img-4b4105b3-29">
  <g font-size="3.88" font-family="'PT Sans','Helvetica Neue','Helvetica',sans-serif" fill="#564A55" stroke="#000000" stroke-opacity="0.000" id="img-4b4105b3-30">
    <text x="193.98" y="55.05" text-anchor="middle" dy="0.6em">Delay to each Observer</text>
  </g>
  <g class="guide xlabels" font-size="2.82" font-family="'PT Sans Caption','Helvetica Neue','Helvetica',sans-serif" fill="#6C606B" id="img-4b4105b3-31">
    <text x="146.15" y="48.38" text-anchor="middle" dy="0.6em">1</text>
    <text x="152.52" y="48.38" text-anchor="middle" dy="0.6em">2</text>
    <text x="158.9" y="48.38" text-anchor="middle" dy="0.6em">3</text>
    <text x="165.28" y="48.38" text-anchor="middle" dy="0.6em">4</text>
    <text x="171.66" y="48.38" text-anchor="middle" dy="0.6em">5</text>
    <text x="178.04" y="48.38" text-anchor="middle" dy="0.6em">6</text>
    <text x="184.41" y="48.38" text-anchor="middle" dy="0.6em">7</text>
    <text x="190.79" y="48.38" text-anchor="middle" dy="0.6em">8</text>
    <text x="197.17" y="48.38" text-anchor="middle" dy="0.6em">9</text>
    <text x="203.55" y="48.38" text-anchor="middle" dy="0.6em">10</text>
    <text x="209.92" y="48.38" text-anchor="middle" dy="0.6em">11</text>
    <text x="216.3" y="48.38" text-anchor="middle" dy="0.6em">12</text>
    <text x="222.68" y="48.38" text-anchor="middle" dy="0.6em">13</text>
    <text x="229.06" y="48.38" text-anchor="middle" dy="0.6em">14</text>
    <text x="235.43" y="48.38" text-anchor="middle" dy="0.6em">15</text>
    <text x="241.81" y="48.38" text-anchor="middle" dy="0.6em">16</text>
  </g>
<g clip-path="url(#img-4b4105b3-32)">
  <g id="img-4b4105b3-33">
    <g pointer-events="visible" opacity="1" fill="#000000" fill-opacity="0.000" stroke="#000000" stroke-opacity="0.000" class="guide background" id="img-4b4105b3-34">
      <rect x="142.96" y="12.61" width="102.04" height="34.77"/>
    </g>
    <g class="guide ygridlines xfixed" stroke-dasharray="0.5,0.5" stroke-width="0.2" stroke="#D0D0E0" id="img-4b4105b3-35">
      <path fill="none" d="M142.96,45.38 L 245 45.38"/>
      <path fill="none" d="M142.96,35.12 L 245 35.12"/>
      <path fill="none" d="M142.96,24.87 L 245 24.87"/>
      <path fill="none" d="M142.96,14.61 L 245 14.61"/>
    </g>
    <g class="guide xgridlines yfixed" stroke-dasharray="0.5,0.5" stroke-width="0.2" stroke="#D0D0E0" id="img-4b4105b3-36">
      <path fill="none" d="M149.34,12.61 L 149.34 47.38"/>
      <path fill="none" d="M155.71,12.61 L 155.71 47.38"/>
      <path fill="none" d="M162.09,12.61 L 162.09 47.38"/>
      <path fill="none" d="M168.47,12.61 L 168.47 47.38"/>
      <path fill="none" d="M174.85,12.61 L 174.85 47.38"/>
      <path fill="none" d="M181.22,12.61 L 181.22 47.38"/>
      <path fill="none" d="M187.6,12.61 L 187.6 47.38"/>
      <path fill="none" d="M193.98,12.61 L 193.98 47.38"/>
      <path fill="none" d="M200.36,12.61 L 200.36 47.38"/>
      <path fill="none" d="M206.73,12.61 L 206.73 47.38"/>
      <path fill="none" d="M213.11,12.61 L 213.11 47.38"/>
      <path fill="none" d="M219.49,12.61 L 219.49 47.38"/>
      <path fill="none" d="M225.87,12.61 L 225.87 47.38"/>
      <path fill="none" d="M232.24,12.61 L 232.24 47.38"/>
      <path fill="none" d="M238.62,12.61 L 238.62 47.38"/>
    </g>
    <g class="plotpanel" id="img-4b4105b3-37">
      <g shape-rendering="crispEdges" stroke-width="0.3" id="img-4b4105b3-38">
        <g stroke="#000000" stroke-opacity="0.000" fill="#00BFFF" class="geometry" id="img-4b4105b3-39">
          <rect x="142.93" y="24.46" width="6.43" height="20.92"/>
          <rect x="149.31" y="32.41" width="6.43" height="12.97"/>
          <rect x="155.69" y="39.58" width="6.43" height="5.8"/>
          <rect x="162.07" y="39.58" width="6.43" height="5.8"/>
          <rect x="168.44" y="24.46" width="6.43" height="20.92"/>
          <rect x="174.82" y="32.41" width="6.43" height="12.97"/>
          <rect x="181.2" y="39.58" width="6.43" height="5.8"/>
          <rect x="187.58" y="39.58" width="6.43" height="5.8"/>
          <rect x="193.95" y="21.46" width="6.43" height="23.92"/>
          <rect x="200.33" y="27.98" width="6.43" height="17.41"/>
          <rect x="206.71" y="32.41" width="6.43" height="12.97"/>
          <rect x="213.09" y="32.41" width="6.43" height="12.97"/>
          <rect x="219.46" y="16.37" width="6.43" height="29.01"/>
          <rect x="225.84" y="21.46" width="6.43" height="23.92"/>
          <rect x="232.22" y="24.46" width="6.43" height="20.92"/>
          <rect x="238.6" y="24.46" width="6.43" height="20.92"/>
        </g>
      </g>
    </g>
  </g>
</g>
  <g class="guide ylabels" font-size="2.82" font-family="'PT Sans Caption','Helvetica Neue','Helvetica',sans-serif" fill="#6C606B" id="img-4b4105b3-40">
    <text x="141.96" y="45.38" text-anchor="end" dy="0.35em">0</text>
    <text x="141.96" y="35.12" text-anchor="end" dy="0.35em">5</text>
    <text x="141.96" y="24.87" text-anchor="end" dy="0.35em">10</text>
    <text x="141.96" y="14.61" text-anchor="end" dy="0.35em">15</text>
  </g>
  <g font-size="3.88" font-family="'PT Sans','Helvetica Neue','Helvetica',sans-serif" fill="#564A55" stroke="#000000" stroke-opacity="0.000" id="img-4b4105b3-41">
    <text x="133.81" y="28" text-anchor="middle" dy="0.35em" transform="rotate(-90, 133.81, 30)">Shift</text>
  </g>
  <g font-size="3.88" font-family="'PT Sans','Helvetica Neue','Helvetica',sans-serif" fill="#564A55" stroke="#000000" stroke-opacity="0.000" id="img-4b4105b3-42">
    <text x="193.98" y="10.61" text-anchor="middle">Ttrue</text>
  </g>
</g>
<g class="plotroot xscalable yscalable" id="img-4b4105b3-43">
  <g font-size="3.88" font-family="'PT Sans','Helvetica Neue','Helvetica',sans-serif" fill="#564A55" stroke="#000000" stroke-opacity="0.000" id="img-4b4105b3-44">
    <text x="69.32" y="188.39" text-anchor="middle" dy="0.6em">Time</text>
  </g>
  <g class="guide xlabels" font-size="2.82" font-family="'PT Sans Caption','Helvetica Neue','Helvetica',sans-serif" fill="#6C606B" id="img-4b4105b3-45">
    <text x="20.63" y="181.71" text-anchor="middle" dy="0.6em">0</text>
    <text x="44.97" y="181.71" text-anchor="middle" dy="0.6em">50</text>
    <text x="69.32" y="181.71" text-anchor="middle" dy="0.6em">100</text>
    <text x="93.66" y="181.71" text-anchor="middle" dy="0.6em">150</text>
    <text x="118" y="181.71" text-anchor="middle" dy="0.6em">200</text>
  </g>
<g clip-path="url(#img-4b4105b3-46)">
  <g id="img-4b4105b3-47">
    <g pointer-events="visible" opacity="1" fill="#000000" fill-opacity="0.000" stroke="#000000" stroke-opacity="0.000" class="guide background" id="img-4b4105b3-48">
      <rect x="18.63" y="145.94" width="101.37" height="34.77"/>
    </g>
    <g class="guide ygridlines xfixed" stroke-dasharray="0.5,0.5" stroke-width="0.2" stroke="#D0D0E0" id="img-4b4105b3-49">
      <path fill="none" d="M18.63,178.71 L 120 178.71"/>
      <path fill="none" d="M18.63,172.56 L 120 172.56"/>
      <path fill="none" d="M18.63,166.41 L 120 166.41"/>
      <path fill="none" d="M18.63,160.25 L 120 160.25"/>
      <path fill="none" d="M18.63,154.1 L 120 154.1"/>
      <path fill="none" d="M18.63,147.94 L 120 147.94"/>
    </g>
    <g class="guide xgridlines yfixed" stroke-dasharray="0.5,0.5" stroke-width="0.2" stroke="#D0D0E0" id="img-4b4105b3-50">
      <path fill="none" d="M20.63,145.94 L 20.63 180.71"/>
      <path fill="none" d="M44.97,145.94 L 44.97 180.71"/>
      <path fill="none" d="M69.32,145.94 L 69.32 180.71"/>
      <path fill="none" d="M93.66,145.94 L 93.66 180.71"/>
      <path fill="none" d="M118,145.94 L 118 180.71"/>
    </g>
    <g class="plotpanel" id="img-4b4105b3-51">
      <g stroke-width="0.3" fill="#000000" fill-opacity="0.000" class="geometry" stroke-dasharray="none" stroke="#008000" id="img-4b4105b3-52">
        <path fill="none" d="M21.12,178.71 L 21.61 178.71 22.09 178.71 22.58 178.71 23.07 178.71 23.55 178.71 24.04 178.71 24.53 178.71 25.01 178.71 25.5 178.71 25.99 178.71 26.47 178.71 26.96 178.71 27.45 178.71 27.93 178.71 28.42 178.71 28.91 178.71 29.39 178.71 29.88 178.71 30.37 178.71 30.86 178.71 31.34 178.71 31.83 178.71 32.32 178.71 32.8 178.71 33.29 178.71 33.78 178.71 34.26 178.71 34.75 178.71 35.24 178.71 35.72 178.71 36.21 178.71 36.7 178.71 37.18 178.71 37.67 178.71 38.16 178.71 38.64 178.71 39.13 178.71 39.62 178.71 40.11 178.71 40.59 178.71 41.08 176.48 41.57 174.38 42.05 174.62 42.54 176.14 43.03 177.55 43.51 178.32 44 178.61 44.49 178.69 44.97 178.68 45.46 178.63 45.95 178.5 46.43 178.25 46.92 177.8 47.41 177.1 47.89 176.16 48.38 175.11 48.87 174.15 49.36 173.52 49.84 173.37 50.33 173.65 50.82 174.16 51.3 174.53 51.79 174.43 52.28 173.63 52.76 172.03 53.25 169.71 53.74 166.92 54.22 164.02 54.71 161.44 55.2 159.61 55.68 158.87 56.17 159.34 56.66 160.95 57.14 163.42 57.63 166.34 58.12 169.32 58.61 171.98 59.09 173.83 59.58 173.43 60.07 171.43 60.55 173.07 61.04 176.74 61.53 178.15 62.01 178.02 62.5 177.06 62.99 175.25 63.47 172.94 63.96 171.21 64.45 171.11 64.93 172.72 65.42 175.03 65.91 176.95 66.39 178.05 66.88 178.5 67.37 178.63 67.86 178.64 68.34 178.61 68.83 178.55 69.32 178.46 69.8 178.35 70.29 178.21 70.78 178.05 71.26 177.87 71.75 177.68 72.24 177.5 72.72 177.34 73.21 177.23 73.7 177.16 74.18 177.16 74.67 177.22 75.16 177.34 75.64 177.49 76.13 177.67 76.62 177.86 77.11 178.04 77.59 178.21 78.08 178.34 78.57 178.46 79.05 178.54 79.54 178.6 80.03 178.65 80.51 178.67 81 178.68 81.49 178.68 81.97 178.65 82.46 178.56 82.95 178.35 83.43 177.93 83.92 177.12 84.41 175.69 84.89 173.4 85.38 170.01 85.87 165.5 86.36 160.16 86.84 154.73 87.33 150.39 87.82 148.53 88.3 150.36 88.79 156.39 89.28 166.17 89.76 178.3 90.25 178.7 90.74 178.71 91.22 178.71 91.71 178.71 92.2 178.71 92.68 178.71 93.17 178.71 93.66 178.71 94.14 178.71 94.63 178.71 95.12 178.71 95.61 178.71 96.09 178.71 96.58 178.71 97.07 178.71 97.55 178.71 98.04 178.71 98.53 178.71 99.01 178.71 99.5 178.71 99.99 178.71 100.47 178.71 100.96 178.71 101.45 178.71 101.93 178.71 102.42 178.71 102.91 178.71 103.39 178.71 103.88 178.71 104.37 178.71 104.86 178.71 105.34 178.71 105.83 178.71 106.32 178.71 106.8 178.71 107.29 178.71 107.78 178.71 108.26 178.71"/>
      </g>
    </g>
  </g>
</g>
  <g class="guide ylabels" font-size="2.82" font-family="'PT Sans Caption','Helvetica Neue','Helvetica',sans-serif" fill="#6C606B" id="img-4b4105b3-53">
    <text x="17.63" y="178.71" text-anchor="end" dy="0.35em">0.0</text>
    <text x="17.63" y="172.56" text-anchor="end" dy="0.35em">0.5</text>
    <text x="17.63" y="166.41" text-anchor="end" dy="0.35em">1.0</text>
    <text x="17.63" y="160.25" text-anchor="end" dy="0.35em">1.5</text>
    <text x="17.63" y="154.1" text-anchor="end" dy="0.35em">2.0</text>
    <text x="17.63" y="147.94" text-anchor="end" dy="0.35em">2.5</text>
  </g>
  <g font-size="3.88" font-family="'PT Sans','Helvetica Neue','Helvetica',sans-serif" fill="#564A55" stroke="#000000" stroke-opacity="0.000" id="img-4b4105b3-54">
    <text x="8.81" y="161.33" text-anchor="middle" dy="0.35em" transform="rotate(-90, 8.81, 163.33)">Magnitude</text>
  </g>
  <g font-size="3.88" font-family="'PT Sans','Helvetica Neue','Helvetica',sans-serif" fill="#564A55" stroke="#000000" stroke-opacity="0.000" id="img-4b4105b3-55">
    <text x="69.32" y="143.94" text-anchor="middle">Signal</text>
  </g>
</g>
<g class="plotroot xscalable yscalable" id="img-4b4105b3-56">
  <g font-size="3.88" font-family="'PT Sans','Helvetica Neue','Helvetica',sans-serif" fill="#564A55" stroke="#000000" stroke-opacity="0.000" id="img-4b4105b3-57">
    <text x="68.14" y="121.72" text-anchor="middle" dy="0.6em">Time</text>
  </g>
  <g class="guide xlabels" font-size="2.82" font-family="'PT Sans Caption','Helvetica Neue','Helvetica',sans-serif" fill="#6C606B" id="img-4b4105b3-58">
    <text x="18.28" y="115.05" text-anchor="middle" dy="0.6em">0</text>
    <text x="43.21" y="115.05" text-anchor="middle" dy="0.6em">50</text>
    <text x="68.14" y="115.05" text-anchor="middle" dy="0.6em">100</text>
    <text x="93.07" y="115.05" text-anchor="middle" dy="0.6em">150</text>
    <text x="118" y="115.05" text-anchor="middle" dy="0.6em">200</text>
  </g>
<g clip-path="url(#img-4b4105b3-59)">
  <g id="img-4b4105b3-60">
    <g pointer-events="visible" opacity="1" fill="#000000" fill-opacity="0.000" stroke="#000000" stroke-opacity="0.000" class="guide background" id="img-4b4105b3-61">
      <rect x="16.28" y="79.28" width="103.72" height="34.77"/>
    </g>
    <g class="guide ygridlines xfixed" stroke-dasharray="0.5,0.5" stroke-width="0.2" stroke="#D0D0E0" id="img-4b4105b3-62">
      <path fill="none" d="M16.28,112.05 L 120 112.05"/>
      <path fill="none" d="M16.28,101.79 L 120 101.79"/>
      <path fill="none" d="M16.28,91.53 L 120 91.53"/>
      <path fill="none" d="M16.28,81.28 L 120 81.28"/>
    </g>
    <g class="guide xgridlines yfixed" stroke-dasharray="0.5,0.5" stroke-width="0.2" stroke="#D0D0E0" id="img-4b4105b3-63">
      <path fill="none" d="M18.28,79.28 L 18.28 114.05"/>
      <path fill="none" d="M43.21,79.28 L 43.21 114.05"/>
      <path fill="none" d="M68.14,79.28 L 68.14 114.05"/>
      <path fill="none" d="M93.07,79.28 L 93.07 114.05"/>
      <path fill="none" d="M118,79.28 L 118 114.05"/>
    </g>
    <g class="plotpanel" id="img-4b4105b3-64">
      <g stroke-width="0.3" fill="#000000" fill-opacity="0.000" class="geometry" stroke-dasharray="none" stroke="#008000" id="img-4b4105b3-65">
        <path fill="none" d="M18.78,112.05 L 19.28 112.05 19.78 112.05 20.28 112.05 20.78 112.05 21.28 112.05 21.78 112.05 22.27 112.05 22.77 112.05 23.27 112.05 23.77 112.05 24.27 112.05 24.77 112.05 25.27 112.05 25.76 112.05 26.26 112.05 26.76 112.05 27.26 112.05 27.76 112.05 28.26 112.05 28.76 112.05 29.25 112.05 29.75 112.05 30.25 112.05 30.75 112.05 31.25 112.05 31.75 112.05 32.25 112.05 32.74 112.05 33.24 112.05 33.74 112.05 34.24 112.05 34.74 112.05 35.24 112.05 35.74 112.05 36.23 112.05 36.73 112.05 37.23 112.04 37.73 112.04 38.23 112.04 38.73 112.02 39.23 101.2 39.72 90.96 40.22 92.13 40.72 99.51 41.22 106.37 41.72 110.14 42.22 111.57 42.72 111.95 43.21 112.02 43.71 112 44.21 111.94 44.71 111.8 45.21 111.57 45.71 111.2 46.21 110.71 46.7 110.16 47.2 109.67 47.7 109.37 48.2 109.34 48.7 109.61 49.2 110.08 49.7 110.62 50.19 111.13 50.69 111.52 51.19 111.77 51.69 111.92 52.19 112 52.69 112.03 53.19 112.04 53.68 112.05 54.18 112.05 54.68 112.05 55.18 112.05 55.68 112.05 56.18 112.05 56.68 112.05 57.17 111.94 57.67 110.14 58.17 100.14 58.67 84.79 59.17 89.14 59.67 104.96 60.17 111.16 60.66 111.71 61.16 111.2 61.66 110.23 62.16 109.02 62.66 108.1 63.16 108.05 63.66 108.9 64.15 110.11 64.65 111.12 65.15 111.7 65.65 111.94 66.15 112.01 66.65 112.01 67.15 111.99 67.64 111.96 68.14 111.92 68.64 111.86 69.14 111.79 69.64 111.7 70.14 111.6 70.64 111.5 71.13 111.41 71.63 111.33 72.13 111.27 72.63 111.23 73.13 111.23 73.63 111.26 74.13 111.32 74.62 111.4 75.12 111.5 75.62 111.6 76.12 111.69 76.62 111.78 77.12 111.85 77.62 111.91 78.11 111.96 78.61 111.99 79.11 112.01 79.61 112.03 80.11 112.04 80.61 112.04 81.11 112.04 81.6 112.05 82.1 112.05 82.6 112.05 83.1 112.05 83.6 112.05 84.1 112.05 84.6 112.05 85.09 112.05 85.59 112.05 86.09 112.05 86.59 112.05 87.09 112.05 87.59 112.05 88.09 112.05 88.58 112.05 89.08 112.05 89.58 112.05 90.08 112.05 90.58 112.05 91.08 112.05 91.58 112.05 92.07 112.05 92.57 112.05 93.07 112.05 93.57 112.05 94.07 112.05 94.57 112.05 95.07 112.05 95.56 112.05 96.06 112.05 96.56 112.05 97.06 112.05 97.56 112.05 98.06 112.05 98.56 112.05 99.05 112.05 99.55 112.05 100.05 112.05 100.55 112.05 101.05 112.05 101.55 112.05 102.05 112.05 102.54 112.05 103.04 112.05 103.54 112.05 104.04 112.05 104.54 112.05 105.04 112.05 105.54 112.05 106.03 112.05 106.53 112.05 107.03 112.05 107.53 112.05 108.03 112.05"/>
      </g>
    </g>
  </g>
</g>
  <g class="guide ylabels" font-size="2.82" font-family="'PT Sans Caption','Helvetica Neue','Helvetica',sans-serif" fill="#6C606B" id="img-4b4105b3-66">
    <text x="15.28" y="112.05" text-anchor="end" dy="0.35em">0</text>
    <text x="15.28" y="101.79" text-anchor="end" dy="0.35em">1</text>
    <text x="15.28" y="91.53" text-anchor="end" dy="0.35em">2</text>
    <text x="15.28" y="81.28" text-anchor="end" dy="0.35em">3</text>
  </g>
  <g font-size="3.88" font-family="'PT Sans','Helvetica Neue','Helvetica',sans-serif" fill="#564A55" stroke="#000000" stroke-opacity="0.000" id="img-4b4105b3-67">
    <text x="8.81" y="94.66" text-anchor="middle" dy="0.35em" transform="rotate(-90, 8.81, 96.66)">Magnitude</text>
  </g>
  <g font-size="3.88" font-family="'PT Sans','Helvetica Neue','Helvetica',sans-serif" fill="#564A55" stroke="#000000" stroke-opacity="0.000" id="img-4b4105b3-68">
    <text x="68.14" y="77.28" text-anchor="middle">Signal</text>
  </g>
</g>
<g class="plotroot xscalable yscalable" id="img-4b4105b3-69">
  <g font-size="3.88" font-family="'PT Sans','Helvetica Neue','Helvetica',sans-serif" fill="#564A55" stroke="#000000" stroke-opacity="0.000" id="img-4b4105b3-70">
    <text x="69.32" y="55.05" text-anchor="middle" dy="0.6em">Time</text>
  </g>
  <g class="guide xlabels" font-size="2.82" font-family="'PT Sans Caption','Helvetica Neue','Helvetica',sans-serif" fill="#6C606B" id="img-4b4105b3-71">
    <text x="20.63" y="48.38" text-anchor="middle" dy="0.6em">0</text>
    <text x="44.97" y="48.38" text-anchor="middle" dy="0.6em">50</text>
    <text x="69.32" y="48.38" text-anchor="middle" dy="0.6em">100</text>
    <text x="93.66" y="48.38" text-anchor="middle" dy="0.6em">150</text>
    <text x="118" y="48.38" text-anchor="middle" dy="0.6em">200</text>
  </g>
<g clip-path="url(#img-4b4105b3-72)">
  <g id="img-4b4105b3-73">
    <g pointer-events="visible" opacity="1" fill="#000000" fill-opacity="0.000" stroke="#000000" stroke-opacity="0.000" class="guide background" id="img-4b4105b3-74">
      <rect x="18.63" y="12.61" width="101.37" height="34.77"/>
    </g>
    <g class="guide ygridlines xfixed" stroke-dasharray="0.5,0.5" stroke-width="0.2" stroke="#D0D0E0" id="img-4b4105b3-75">
      <path fill="none" d="M18.63,45.38 L 120 45.38"/>
      <path fill="none" d="M18.63,37.69 L 120 37.69"/>
      <path fill="none" d="M18.63,30 L 120 30"/>
      <path fill="none" d="M18.63,22.3 L 120 22.3"/>
      <path fill="none" d="M18.63,14.61 L 120 14.61"/>
    </g>
    <g class="guide xgridlines yfixed" stroke-dasharray="0.5,0.5" stroke-width="0.2" stroke="#D0D0E0" id="img-4b4105b3-76">
      <path fill="none" d="M20.63,12.61 L 20.63 47.38"/>
      <path fill="none" d="M44.97,12.61 L 44.97 47.38"/>
      <path fill="none" d="M69.32,12.61 L 69.32 47.38"/>
      <path fill="none" d="M93.66,12.61 L 93.66 47.38"/>
      <path fill="none" d="M118,12.61 L 118 47.38"/>
    </g>
    <g class="plotpanel" id="img-4b4105b3-77">
      <g stroke-width="0.3" fill="#000000" fill-opacity="0.000" class="geometry" stroke-dasharray="none" stroke="#008000" id="img-4b4105b3-78">
        <path fill="none" d="M21.12,45.38 L 21.61 45.38 22.09 45.38 22.58 45.38 23.07 45.38 23.55 45.38 24.04 45.38 24.53 45.38 25.01 45.38 25.5 45.38 25.99 45.38 26.47 45.38 26.96 45.38 27.45 45.38 27.93 45.38 28.42 45.38 28.91 45.38 29.39 45.38 29.88 45.38 30.37 45.38 30.86 45.38 31.34 45.38 31.83 45.38 32.32 45.38 32.8 45.38 33.29 45.38 33.78 45.38 34.26 45.38 34.75 45.38 35.24 45.38 35.72 45.38 36.21 45.38 36.7 45.38 37.18 45.38 37.67 45.38 38.16 45.38 38.64 45.38 39.13 45.38 39.62 45.38 40.11 45.38 40.59 45.38 41.08 43.93 41.57 42.56 42.05 42.72 42.54 43.71 43.03 44.62 43.51 45.12 44 45.31 44.49 45.34 44.97 45.28 45.46 45.11 45.95 44.71 46.43 43.9 46.92 42.46 47.41 40.24 47.89 37.28 48.38 33.96 48.87 30.98 49.36 29.14 49.84 29 50.33 30.59 50.82 33.44 51.3 36.75 51.79 39.8 52.28 42.15 52.76 43.71 53.25 44.61 53.74 45.06 54.22 45.26 54.71 45.34 55.2 45.37 55.68 45.38 56.17 45.38 56.66 45.38 57.14 45.38 57.63 45.38 58.12 45.38 58.61 45.37 59.09 45.13 59.58 43.79 60.07 41.73 60.55 42.3 61.04 44.32 61.53 44.75 62.01 43.52 62.5 40.27 62.99 34.4 63.47 27.02 63.96 21.49 64.45 21.18 64.93 26.3 65.42 33.66 65.91 39.77 66.39 43.26 66.88 44.71 67.37 45.12 67.86 45.14 68.34 45.03 68.83 44.84 69.32 44.58 69.8 44.23 70.29 43.79 70.78 43.27 71.26 42.69 71.75 42.09 72.24 41.52 72.72 41.02 73.21 40.65 73.7 40.45 74.18 40.44 74.67 40.63 75.16 40.99 75.64 41.48 76.13 42.06 76.62 42.66 77.11 43.24 77.59 43.76 78.08 44.2 78.57 44.56 79.05 44.83 79.54 45.03 80.03 45.16 80.51 45.25 81 45.31 81.49 45.34 81.97 45.36 82.46 45.37 82.95 45.38 83.43 45.38 83.92 45.38 84.41 45.38 84.89 45.38 85.38 45.38 85.87 45.38 86.36 45.38 86.84 45.38 87.33 45.38 87.82 45.38 88.3 45.38 88.79 45.38 89.28 45.38 89.76 45.38 90.25 45.38 90.74 45.38 91.22 45.38 91.71 45.38 92.2 45.38 92.68 45.38 93.17 45.38 93.66 45.38 94.14 45.38 94.63 45.38 95.12 45.38 95.61 45.38 96.09 45.38 96.58 45.38 97.07 45.38 97.55 45.38 98.04 45.38 98.53 45.38 99.01 45.38 99.5 45.38 99.99 45.38 100.47 45.38 100.96 45.38 101.45 45.38 101.93 45.38 102.42 45.38 102.91 45.38 103.39 45.38 103.88 45.38 104.37 45.38 104.86 45.38 105.34 45.38 105.83 45.38 106.32 45.38 106.8 45.38 107.29 45.38 107.78 45.38 108.26 45.38"/>
      </g>
    </g>
  </g>
</g>
  <g class="guide ylabels" font-size="2.82" font-family="'PT Sans Caption','Helvetica Neue','Helvetica',sans-serif" fill="#6C606B" id="img-4b4105b3-79">
    <text x="17.63" y="45.38" text-anchor="end" dy="0.35em">0.0</text>
    <text x="17.63" y="37.69" text-anchor="end" dy="0.35em">0.2</text>
    <text x="17.63" y="30" text-anchor="end" dy="0.35em">0.4</text>
    <text x="17.63" y="22.3" text-anchor="end" dy="0.35em">0.6</text>
    <text x="17.63" y="14.61" text-anchor="end" dy="0.35em">0.8</text>
  </g>
  <g font-size="3.88" font-family="'PT Sans','Helvetica Neue','Helvetica',sans-serif" fill="#564A55" stroke="#000000" stroke-opacity="0.000" id="img-4b4105b3-80">
    <text x="8.81" y="28" text-anchor="middle" dy="0.35em" transform="rotate(-90, 8.81, 30)">Magnitude</text>
  </g>
  <g font-size="3.88" font-family="'PT Sans','Helvetica Neue','Helvetica',sans-serif" fill="#564A55" stroke="#000000" stroke-opacity="0.000" id="img-4b4105b3-81">
    <text x="69.32" y="10.61" text-anchor="middle">Signal</text>
  </g>
</g>
<defs>
  <clipPath id="img-4b4105b3-59">
  <path d="M16.28,79.28 L 120 79.28 120 114.05 16.28 114.05" />
</clipPath>
  <clipPath id="img-4b4105b3-32">
  <path d="M142.96,12.61 L 245 12.61 245 47.38 142.96 47.38" />
</clipPath>
  <clipPath id="img-4b4105b3-46">
  <path d="M18.63,145.94 L 120 145.94 120 180.71 18.63 180.71" />
</clipPath>
  <clipPath id="img-4b4105b3-72">
  <path d="M18.63,12.61 L 120 12.61 120 47.38 18.63 47.38" />
</clipPath>
  <clipPath id="img-4b4105b3-18">
  <path d="M142.96,79.28 L 245 79.28 245 114.05 142.96 114.05" />
</clipPath>
  <clipPath id="img-4b4105b3-4">
  <path d="M142.96,145.94 L 245 145.94 245 180.71 142.96 180.71" />
</clipPath>
</defs>
</svg>
