<?xml version="1.0" encoding="UTF-8"?>
<svg xmlns="http://www.w3.org/2000/svg"
     xmlns:xlink="http://www.w3.org/1999/xlink"
     xmlns:gadfly="http://www.gadflyjl.org/ns"
     version="1.2"
     width="250mm" height="200mm" viewBox="0 0 250 200"
     stroke="none"
     fill="#000000"
     stroke-width="0.3"
     font-size="3.88"
>
<g class="plotroot xscalable yscalable" id="img-95fdd766-1">
  <g font-size="3.88" font-family="'PT Sans','Helvetica Neue','Helvetica',sans-serif" fill="#564A55" stroke="#000000" stroke-opacity="0.000" id="img-95fdd766-2">
    <text x="132.32" y="188.39" text-anchor="middle" dy="0.6em">Time</text>
  </g>
  <g class="guide xlabels" font-size="2.82" font-family="'PT Sans Caption','Helvetica Neue','Helvetica',sans-serif" fill="#6C606B" id="img-95fdd766-3">
    <text x="21.63" y="181.72" text-anchor="middle" dy="0.6em">0</text>
    <text x="95.42" y="181.72" text-anchor="middle" dy="0.6em">50</text>
    <text x="169.21" y="181.72" text-anchor="middle" dy="0.6em">100</text>
    <text x="243" y="181.72" text-anchor="middle" dy="0.6em">150</text>
  </g>
<g clip-path="url(#img-95fdd766-4)">
  <g id="img-95fdd766-5">
    <g pointer-events="visible" opacity="1" fill="#000000" fill-opacity="0.000" stroke="#000000" stroke-opacity="0.000" class="guide background" id="img-95fdd766-6">
      <rect x="19.63" y="12.61" width="225.37" height="168.1"/>
    </g>
    <g class="guide ygridlines xfixed" stroke-dasharray="0.5,0.5" stroke-width="0.2" stroke="#D0D0E0" id="img-95fdd766-7">
      <path fill="none" d="M19.63,178.72 L 245 178.72"/>
      <path fill="none" d="M19.63,96.66 L 245 96.66"/>
      <path fill="none" d="M19.63,14.61 L 245 14.61"/>
    </g>
    <g class="guide xgridlines yfixed" stroke-dasharray="0.5,0.5" stroke-width="0.2" stroke="#D0D0E0" id="img-95fdd766-8">
      <path fill="none" d="M21.63,12.61 L 21.63 180.72"/>
      <path fill="none" d="M95.42,12.61 L 95.42 180.72"/>
      <path fill="none" d="M169.21,12.61 L 169.21 180.72"/>
      <path fill="none" d="M243,12.61 L 243 180.72"/>
    </g>
    <g class="plotpanel" id="img-95fdd766-9">
      <g stroke-width="0.3" fill="#000000" fill-opacity="0.000" class="geometry" stroke-dasharray="none" stroke="#800080" id="img-95fdd766-10">
        <path fill="none" d="M23.11,178.65 L 24.58 178.66 26.06 178.67 27.53 178.65 29.01 178.69 30.49 178.64 31.96 178.7 33.44 178.63 34.91 178.72 36.39 178.61 37.87 178.72 39.34 178.6 40.82 178.72 42.29 178.57 43.77 178.72 45.24 178.53 46.72 178.72 48.2 178.46 49.67 178.72 51.15 178.31 52.62 178.46 54.1 176.69 55.57 178.11 57.05 171.74 58.53 163.03 60 163.93 61.48 166.83 62.95 171.67 64.43 174.11 65.91 177.37 67.38 177.07 68.86 174.9 70.33 172.81 71.81 173.28 73.28 175.55 74.76 177.29 76.24 172.93 77.71 169.69 79.19 169.44 80.66 172.67 82.14 177.29 83.61 171.27 85.09 164.82 86.57 163.45 88.04 165.25 89.52 172.93 90.99 164.79 92.47 156.11 93.95 154.21 95.42 158.28 96.9 169.38 98.37 167.8 99.85 160.9 101.32 159.32 102.8 163.22 104.28 172.66 105.75 173.99 107.23 166.66 108.7 163.39 110.18 165.78 111.65 170.17 113.13 165 114.61 151.53 116.08 156.66 117.56 168.58 119.03 174.75 120.51 178.42 121.99 177.18 123.46 177.69 124.94 178.01 126.41 176.99 127.89 178.32 129.36 175.9 130.84 171.11 132.32 167.28 133.79 165.12 135.27 167.08 136.74 162.68 138.22 155.73 139.69 154.77 141.17 159.97 142.65 170.22 144.12 173.6 145.6 165.73 147.07 160.76 148.55 162.19 150.03 168.94 151.5 174.31 152.98 164.76 154.45 156.49 155.93 154.49 157.4 155.53 158.88 159.54 160.36 146.52 161.83 134.69 163.31 129.69 164.78 129.83 166.26 135.99 167.73 134.04 169.21 133.07 170.69 137.93 172.16 146.33 173.64 157.38 175.11 162.55 176.59 164.33 178.07 166.89 179.54 170.72 181.02 174.77 182.49 176.78 183.97 175.47 185.44 175.2 186.92 175.73 188.4 177.06 189.87 177.5 191.35 175.93 192.82 173.43 194.3 170.85 195.77 166.18 197.25 160.06 198.73 150.36 200.2 140.01 201.68 129.05 203.15 121.98 204.63 119.27 206.11 125.91 207.58 138.83 209.06 161.77 210.53 178.72 212.01 177.67 213.48 178.72 214.96 178.28 216.44 178.72 217.91 178.46 219.39 178.71 220.86 178.55 222.34 178.69 223.81 178.6 225.29 178.68 226.77 178.63 228.24 178.67"/>
      </g>
      <g stroke-width="0.3" fill="#000000" fill-opacity="0.000" class="geometry" stroke-dasharray="none" stroke="#A52A2A" id="img-95fdd766-11">
        <path fill="none" d="M23.11,178.66 L 24.58 178.68 26.06 178.65 27.53 178.69 29.01 178.64 30.49 178.71 31.96 178.62 33.44 178.72 34.91 178.6 36.39 178.72 37.87 178.57 39.34 178.72 40.82 178.53 42.29 178.72 43.77 178.43 45.24 178.72 46.72 178.17 48.2 178.72 49.67 175.48 51.15 161.84 52.62 160.97 54.1 165.75 55.57 172.37 57.05 175.25 58.53 177 60 177.2 61.48 178.3 62.95 177.99 64.43 177.07 65.91 175.91 67.38 175.55 68.86 175.12 70.33 173.44 71.81 167.59 73.28 160.47 74.76 153.22 76.24 147.47 77.71 144.08 79.19 139.92 80.66 139.49 82.14 144.71 83.61 153 85.09 163.91 86.57 167.1 88.04 168.02 89.52 169.76 90.99 172.39 92.47 176.95 93.95 176.01 95.42 172.66 96.9 171.55 98.37 172.75 99.85 176.38 101.32 176.9 102.8 173.81 104.28 171.03 105.75 163.8 107.23 153.76 108.7 159.1 110.18 170.34 111.65 174.29 113.13 175.58 114.61 176.3 116.08 175.32 117.56 168.59 119.03 156.82 120.51 140.88 121.99 127.1 123.46 125.09 124.94 134.17 126.41 148.56 127.89 161.67 129.36 170.22 130.84 175.98 132.32 176.33 133.79 173.59 135.27 171.87 136.74 172.1 138.22 174.5 139.69 174.55 141.17 170.21 142.65 166.99 144.12 166.35 145.6 167.91 147.07 169.18 148.55 164.8 150.03 161.32 151.5 161.1 152.98 162.64 154.45 165.96 155.93 162.45 157.4 158.86 158.88 157.06 160.36 155.93 161.83 155.77 163.31 151.18 164.78 146.29 166.26 144.15 167.73 144.51 169.21 147.75 170.69 150.44 172.16 153.39 173.64 157.63 175.11 162.86 176.59 167.97 178.07 171.81 179.54 173.52 181.02 175.05 182.49 176.27 183.97 177.54 185.44 178.2 186.92 178.14 188.4 177.82 189.87 177.95 191.35 177.67 192.82 177.44 194.3 175.9 195.77 173.74 197.25 169.71 198.73 164.45 200.2 156.94 201.68 148.9 203.15 140.38 204.63 134.78 206.11 132.55 207.58 137.49 209.06 147.4 210.53 165 212.01 178.7 213.48 177.93 214.96 178.72 216.44 178.4 217.91 178.71 219.39 178.53 220.86 178.69 222.34 178.59 223.81 178.68 225.29 178.63 226.77 178.67 228.24 178.66"/>
      </g>
      <g stroke-width="0.3" fill="#000000" fill-opacity="0.000" class="geometry" stroke-dasharray="none" stroke="#808080" id="img-95fdd766-12">
        <path fill="none" d="M23.11,178.65 L 24.58 178.66 26.06 178.65 27.53 178.66 29.01 178.64 30.49 178.66 31.96 178.63 33.44 178.65 34.91 178.61 36.39 178.65 37.87 178.6 39.34 178.64 40.82 178.57 42.29 178.63 43.77 178.54 45.24 178.62 46.72 178.5 48.2 178.59 49.67 178.41 51.15 178.51 52.62 177.57 54.1 177 55.57 176.14 57.05 176.69 58.53 174.73 60 103.16 61.48 82.82 62.95 102.71 64.43 137.78 65.91 162.41 67.38 173.02 68.86 172.84 70.33 172.03 71.81 172.3 73.28 175.33 74.76 176.26 76.24 170.87 77.71 166.62 79.19 165.84 80.66 168.68 82.14 172.66 83.61 164.41 85.09 158.63 86.57 158.51 88.04 164.17 89.52 174.93 90.99 167.32 92.47 160.28 93.95 159.26 95.42 164.39 96.9 175.27 98.37 170.31 99.85 161.35 101.32 158.59 102.8 162.95 104.28 172.94 105.75 173.04 107.23 164.48 108.7 161.46 110.18 164.76 111.65 172.22 113.13 171.36 114.61 131.97 116.08 60.43 117.56 60.77 119.03 134.78 120.51 172.82 121.99 176.01 123.46 175.78 124.94 173.82 126.41 170.27 127.89 170.07 129.36 167.17 130.84 164.65 132.32 164.79 133.79 168.22 135.27 175.42 136.74 172.8 138.22 165.09 139.69 161.44 141.17 163.88 142.65 172.31 144.12 173.02 145.6 162.9 147.07 157.52 148.55 159.26 150.03 167.02 151.5 171.84 152.98 160.23 154.45 152.84 155.93 152.55 157.4 157.98 158.88 166.31 160.36 156.7 161.83 151.18 163.31 152.43 164.78 158.79 166.26 168.63 167.73 166.09 169.21 163.49 170.69 164.74 172.16 169.14 173.64 175.24 175.11 175.04 176.59 172.25 178.07 171.91 179.54 173.67 181.02 176.77 182.49 177.47 183.97 175.5 185.44 174.7 186.92 175.21 188.4 176.05 189.87 176.13 191.35 173.34 192.82 170.75 194.3 168.09 195.77 165.77 197.25 163.59 198.73 162.01 200.2 161.95 201.68 164.66 203.15 169.06 204.63 176.17 206.11 178.72 207.58 178.39 209.06 178.72 210.53 178.56 212.01 178.71 213.48 178.61 214.96 178.69 216.44 178.63 217.91 178.68 219.39 178.64 220.86 178.68 222.34 178.65 223.81 178.67 225.29 178.66 226.77 178.66 228.24 178.66"/>
      </g>
      <g stroke-width="0.3" fill="#000000" fill-opacity="0.000" class="geometry" stroke-dasharray="none" stroke="#FFFF00" id="img-95fdd766-13">
        <path fill="none" d="M23.11,178.62 L 24.58 178.72 26.06 178.61 27.53 178.72 29.01 178.59 30.49 178.72 31.96 178.58 33.44 178.72 34.91 178.56 36.39 178.72 37.87 178.54 39.34 178.72 40.82 178.51 42.29 178.72 43.77 178.46 45.24 178.72 46.72 178.39 48.2 178.72 49.67 178.28 51.15 178.72 52.62 178.04 54.1 178.72 55.57 176.95 57.05 178.72 58.53 164.58 60 149.16 61.48 154.06 62.95 162.33 64.43 170.01 65.91 172.59 67.38 174.67 68.86 176.22 70.33 177.65 71.81 174.25 73.28 171.41 74.76 169.28 76.24 169.72 77.71 169.15 79.19 162.04 80.66 151.87 82.14 147.45 83.61 147.25 85.09 154.66 86.57 154.21 88.04 149.48 89.52 152.62 90.99 157.91 92.47 171.98 93.95 172.33 95.42 161.33 96.9 159.27 98.37 160.2 99.85 172.19 101.32 173.72 102.8 163.31 104.28 157.98 105.75 159.31 107.23 169 108.7 174.6 110.18 167.03 111.65 160.34 113.13 156.93 114.61 145.81 116.08 140.05 117.56 152.02 119.03 163.19 120.51 167.64 121.99 168.59 123.46 167.44 124.94 157.68 126.41 147.59 127.89 144.35 129.36 146.61 130.84 156.99 132.32 165.92 133.79 167.08 135.27 167.04 136.74 166.86 138.22 172.64 139.69 173.17 141.17 163.83 142.65 156.19 144.12 153.64 145.6 158.34 147.07 161.2 148.55 150.53 150.03 139.58 151.5 138.09 152.98 144.07 154.45 154.59 155.93 150.99 157.4 142.63 158.88 145.61 160.36 151.96 161.83 166.94 163.31 166.56 164.78 158.23 166.26 159.51 167.73 162.78 169.21 173.39 170.69 174.18 172.16 168.07 173.64 166.99 175.11 168.54 176.59 174.17 178.07 175.49 179.54 171.09 181.02 167.65 182.49 165.99 183.97 165.42 185.44 163.39 186.92 157.65 188.4 152.78 189.87 151.77 191.35 154.53 192.82 160.91 194.3 168.31 195.77 176.08 197.25 176.79 198.73 177.4 200.2 178.37 201.68 178.68 203.15 178.61 204.63 178.7 206.11 178.63 207.58 178.71 209.06 178.64 210.53 178.72 212.01 178.64 213.48 178.72 214.96 178.64 216.44 178.72 217.91 178.64 219.39 178.72 220.86 178.63 222.34 178.72 223.81 178.63 225.29 178.72 226.77 178.62 228.24 178.72"/>
      </g>
      <g stroke-width="0.3" fill="#000000" fill-opacity="0.000" class="geometry" stroke-dasharray="none" stroke="#FFA500" id="img-95fdd766-14">
        <path fill="none" d="M23.11,178.58 L 24.58 178.72 26.06 178.56 27.53 178.72 29.01 178.54 30.49 178.72 31.96 178.51 33.44 178.72 34.91 178.48 36.39 178.72 37.87 178.44 39.34 178.72 40.82 178.37 42.29 178.72 43.77 178.28 45.24 178.72 46.72 178.13 48.2 178.72 49.67 177.83 51.15 178.72 52.62 176.95 54.1 178.72 55.57 167.84 57.05 137.35 58.53 138.53 60 150.05 61.48 165.58 62.95 172.01 64.43 176.23 65.91 176.4 67.38 178.32 68.86 176.85 70.33 175.35 71.81 172.54 73.28 170.91 74.76 168.16 76.24 164 77.71 155.55 79.19 149.77 80.66 146.93 82.14 149.75 83.61 154.55 85.09 155.74 86.57 158.5 88.04 163.34 89.52 169.46 90.99 176.23 92.47 172.42 93.95 169.89 95.42 169.21 96.9 172.41 98.37 177.12 99.85 174.24 101.32 169.91 102.8 168.95 104.28 171.34 105.75 176.23 107.23 175.59 108.7 171.17 110.18 165.62 111.65 145.27 113.13 121.3 114.61 136.8 116.08 163.39 117.56 171.18 119.03 170.28 120.51 165.35 121.99 155.65 123.46 143.08 124.94 137.4 126.41 140.47 127.89 149.94 129.36 160.79 130.84 164.87 132.32 163.77 133.79 160.38 135.27 157.73 136.74 156.62 138.22 151.22 139.69 145.09 141.17 142.54 142.65 144.62 144.12 150.59 145.6 153.07 147.07 151.14 148.55 152.01 150.03 155.86 151.5 162.31 152.98 166.07 154.45 161.98 155.93 160.68 157.4 162.5 158.88 167.36 160.36 172.57 161.83 168.63 163.31 167.37 164.78 168.05 166.26 171.06 167.73 173.72 169.21 169.46 170.69 164.02 172.16 159.19 173.64 154.25 175.11 149.72 176.59 142.09 178.07 136.75 179.54 136.02 181.02 142.99 182.49 154.37 183.97 171.18 185.44 177.54 186.92 176.2 188.4 177.47 189.87 177.8 191.35 178.6 192.82 177.8 194.3 177.86 195.77 177.87 197.25 178.36 198.73 178.62 200.2 178.68 201.68 178.65 203.15 178.68 204.63 178.67 206.11 178.67 207.58 178.69 209.06 178.66 210.53 178.7 212.01 178.65 213.48 178.71 214.96 178.64 216.44 178.72 217.91 178.63 219.39 178.72 220.86 178.62 222.34 178.72 223.81 178.61 225.29 178.72 226.77 178.59 228.24 178.72"/>
      </g>
      <g stroke-width="0.3" fill="#000000" fill-opacity="0.000" class="geometry" stroke-dasharray="none" stroke="#000000" id="img-95fdd766-15">
        <path fill="none" d="M23.11,178.59 L 24.58 178.67 26.06 178.58 27.53 178.67 29.01 178.56 30.49 178.66 31.96 178.53 33.44 178.65 34.91 178.48 36.39 178.63 37.87 178.4 39.34 178.6 40.82 178.22 42.29 178.5 43.77 177.59 45.24 177.67 46.72 123.36 48.2 104.6 49.67 119.79 51.15 146.15 52.62 165.46 54.1 174.9 55.57 176.56 57.05 176 58.53 175.67 60 176.27 61.48 177.85 62.95 176.58 64.43 174.22 65.91 172.9 67.38 173.65 68.86 176.01 70.33 175.71 71.81 171.04 73.28 169.22 74.76 169.78 76.24 174.33 77.71 176.61 79.19 169.57 80.66 166.77 82.14 166.61 83.61 172.62 85.09 177.92 86.57 168.79 88.04 164.5 89.52 163.48 90.99 169.76 92.47 176.34 93.95 169.96 95.42 163.8 96.9 162.68 98.37 167.71 99.85 171.89 101.32 145.25 102.8 84.28 104.28 76.94 105.75 134.5 107.23 170.26 108.7 175.75 110.18 170.79 111.65 170.34 113.13 172.02 114.61 175.47 116.08 176.82 117.56 175.73 119.03 177.12 120.51 177.09 121.99 177.16 123.46 178.29 124.94 174.95 126.41 171.91 127.89 170.18 129.36 172.78 130.84 176.77 132.32 172.41 133.79 166.42 135.27 164.17 136.74 167.09 138.22 172.87 139.69 169.4 141.17 159.21 142.65 153.86 144.12 153.15 145.6 156.66 147.07 154.18 148.55 140.93 150.03 135.81 151.5 136 152.98 144.31 154.45 151.3 155.93 146.25 157.4 148.19 158.88 153.22 160.36 162.96 161.83 170.93 163.31 168.52 164.78 167.86 166.26 169.09 167.73 173.26 169.21 177.01 170.69 175.57 172.16 173.36 173.64 173.35 175.11 174.71 176.59 176.5 178.07 175.1 179.54 171.54 181.02 167.92 182.49 163.76 183.97 158.23 185.44 150.89 186.92 141.75 188.4 135.66 189.87 133.25 191.35 137.45 192.82 146.91 194.3 162.46 195.77 177.91 197.25 178.13 198.73 178.58 200.2 178.46 201.68 178.64 203.15 178.54 204.63 178.66 206.11 178.58 207.58 178.67 209.06 178.6 210.53 178.67 212.01 178.61 213.48 178.68 214.96 178.61 216.44 178.68 217.91 178.61 219.39 178.68 220.86 178.61 222.34 178.68 223.81 178.61 225.29 178.68 226.77 178.6 228.24 178.67"/>
      </g>
      <g stroke-width="0.3" fill="#000000" fill-opacity="0.000" class="geometry" stroke-dasharray="none" stroke="#0000FF" id="img-95fdd766-16">
        <path fill="none" d="M23.11,178.34 L 24.58 178.72 26.06 178.28 27.53 178.72 29.01 178.21 30.49 178.72 31.96 178.1 33.44 178.72 34.91 177.95 36.39 178.72 37.87 177.68 39.34 178.72 40.82 177.17 42.29 178.72 43.77 175.71 45.24 178.72 46.72 161.77 48.2 104.53 49.67 104.86 51.15 124.95 52.62 154.86 54.1 168.63 55.57 177.32 57.05 177.12 58.53 178.6 60 177.07 61.48 178.22 62.95 177.77 64.43 178.6 65.91 176.62 67.38 176.36 68.86 174.45 70.33 174.15 71.81 170.83 73.28 165.9 74.76 159.21 76.24 155.12 77.71 152.92 79.19 154.43 80.66 154.36 82.14 156.2 83.61 160.21 85.09 166.23 86.57 172.76 88.04 173.65 89.52 170.14 90.99 170.57 92.47 171.28 93.95 177.45 95.42 176.01 96.9 170.32 98.37 168.91 99.85 169.07 101.32 167.51 102.8 128.12 104.28 69.98 105.75 91.13 107.23 148.09 108.7 171.77 110.18 176.6 111.65 172.53 113.13 169.41 114.61 169.49 116.08 170.71 117.56 169.02 119.03 158 120.51 145.01 121.99 138.89 123.46 141.89 124.94 152.82 126.41 163.21 127.89 170.95 129.36 175.66 130.84 176.12 132.32 176.56 133.79 174.99 135.27 170.8 136.74 167.09 138.22 164.14 139.69 164.29 141.17 161.88 142.65 155.1 144.12 150.4 145.6 149.39 147.07 153.39 148.55 157.11 150.03 154.77 151.5 152.73 152.98 155.3 154.45 161.02 155.93 168.13 157.4 167.05 158.88 163.5 160.36 165.12 161.83 168.24 163.31 175.42 164.78 174.39 166.26 169.87 167.73 170.11 169.21 171.31 170.69 175.94 172.16 174.94 173.64 170.23 175.11 167.3 176.59 164.9 178.07 163.8 179.54 160.25 181.02 154.63 182.49 151.65 183.97 152.5 185.44 157.93 186.92 165.59 188.4 174.6 189.87 176.94 191.35 176.55 192.82 177.78 194.3 178.23 195.77 178.31 197.25 177.53 198.73 177.95 200.2 177.92 201.68 178.71 203.15 178.52 204.63 178.72 206.11 178.52 207.58 178.72 209.06 178.51 210.53 178.72 212.01 178.5 213.48 178.72 214.96 178.49 216.44 178.72 217.91 178.47 219.39 178.72 220.86 178.44 222.34 178.72 223.81 178.42 225.29 178.72 226.77 178.38 228.24 178.72"/>
      </g>
      <g stroke-width="0.3" fill="#000000" fill-opacity="0.000" class="geometry" stroke-dasharray="none" stroke="#FF0000" id="img-95fdd766-17">
        <path fill="none" d="M23.11,178.7 L 24.58 178.7 26.06 178.7 27.53 178.7 29.01 178.69 30.49 178.71 31.96 178.69 33.44 178.71 34.91 178.69 36.39 178.71 37.87 178.68 39.34 178.72 40.82 178.68 42.29 178.72 43.77 178.67 45.24 178.72 46.72 178.65 48.2 178.64 49.67 178.04 51.15 177.93 52.62 177.52 54.1 178.43 55.57 176.18 57.05 173.06 58.53 173.13 60 174.22 61.48 176.41 62.95 177.8 64.43 177.22 65.91 175.6 67.38 175.15 68.86 175.8 70.33 177.67 71.81 176.95 73.28 174.01 74.76 172.99 76.24 173.6 77.71 176.73 79.19 177.29 80.66 172.09 82.14 170.5 83.61 169.71 85.09 173.09 86.57 172.39 88.04 161.25 89.52 151.91 90.99 142.78 92.47 138.68 93.95 134.96 95.42 126.89 96.9 125.13 98.37 130.96 99.85 143.79 101.32 157.15 102.8 162.22 104.28 163.47 105.75 166.62 107.23 171.11 108.7 176.12 110.18 175.32 111.65 169.15 113.13 167.6 114.61 171.93 116.08 177.12 117.56 178.32 119.03 177.67 120.51 178.42 121.99 177.88 123.46 177.99 124.94 178.34 126.41 175.87 127.89 173.92 129.36 172.78 130.84 174.21 132.32 173.7 133.79 162.96 135.27 144.91 136.74 123.2 138.22 106.85 139.69 103.5 141.17 109.36 142.65 121.01 144.12 135.46 145.6 146.52 147.07 154.92 148.55 155.35 150.03 149.53 151.5 149.73 152.98 152.76 154.45 160.67 155.93 164.58 157.4 160.26 158.88 160.34 160.36 161.02 161.83 165.07 163.31 166.38 164.78 162.04 166.26 159.92 167.73 159.78 169.21 162.3 170.69 164.67 172.16 164.02 173.64 163.76 175.11 164.73 176.59 166.42 178.07 167.29 179.54 165.25 181.02 161.11 182.49 156.92 183.97 152.71 185.44 149.64 186.92 147.9 188.4 148.92 189.87 154.75 191.35 164.51 192.82 176.79 194.3 178.59 195.77 178.41 197.25 178.67 198.73 178.57 200.2 178.69 201.68 178.63 203.15 178.69 204.63 178.65 206.11 178.7 207.58 178.66 209.06 178.7 210.53 178.67 212.01 178.7 213.48 178.68 214.96 178.7 216.44 178.69 217.91 178.7 219.39 178.69 220.86 178.7 222.34 178.69 223.81 178.7 225.29 178.7 226.77 178.7 228.24 178.7"/>
      </g>
      <g stroke-width="0.3" fill="#000000" fill-opacity="0.000" class="geometry" stroke-dasharray="none" stroke="#008000" id="img-95fdd766-18">
        <path fill="none" d="M23.11,178.39 L 24.58 178.72 26.06 178.35 27.53 178.72 29.01 178.31 30.49 178.72 31.96 178.25 33.44 178.72 34.91 178.17 36.39 178.72 37.87 178.06 39.34 178.72 40.82 177.89 42.29 178.72 43.77 177.59 45.24 178.72 46.72 176.96 48.2 178.72 49.67 174.86 51.15 178.72 52.62 102.14 54.1 60.45 55.57 82.88 57.05 122.63 58.53 156.08 60 169.21 61.48 174.18 62.95 172.78 64.43 173.15 65.91 171.88 67.38 172.72 68.86 171.73 70.33 173.15 71.81 173.73 73.28 176.23 74.76 176.74 76.24 176.68 77.71 175.62 79.19 176.32 80.66 176.87 82.14 178.55 83.61 176.35 85.09 175.41 86.57 174.89 88.04 176.38 89.52 178.34 90.99 176.6 92.47 174.41 93.95 174.31 95.42 175.19 96.9 178 98.37 176.58 99.85 174.63 101.32 173.75 102.8 174.72 104.28 176.3 105.75 171.35 107.23 135.61 108.7 47.81 110.18 20.26 111.65 104.1 113.13 161.81 114.61 172.61 116.08 174.74 117.56 176.22 119.03 177.65 120.51 178.55 121.99 178.16 123.46 178.34 124.94 178.24 126.41 177.95 127.89 178.13 129.36 177.29 130.84 175.97 132.32 175.23 133.79 175.3 135.27 176.61 136.74 175.68 138.22 173.72 139.69 172.72 141.17 173.26 142.65 175.12 144.12 175.07 145.6 172.08 147.07 169.8 148.55 168.55 150.03 167.98 151.5 165.91 152.98 159.32 154.45 153.46 155.93 149.6 157.4 148.01 158.88 148.53 160.36 146.48 161.83 147.04 163.31 150.57 164.78 156.07 166.26 162.64 167.73 165.87 169.21 168.5 170.69 171.21 172.16 173.99 173.64 176.51 175.11 177.15 176.59 176.8 178.07 176.92 179.54 177.34 181.02 178.06 182.49 177.94 183.97 177 185.44 175.74 186.92 174.08 188.4 171.2 189.87 166.73 191.35 159.84 192.82 151.8 194.3 143.38 195.77 136.44 197.25 132.89 198.73 134.59 200.2 142.87 201.68 156.87 203.15 175.26 204.63 178.72 206.11 178.07 207.58 178.72 209.06 178.33 210.53 178.72 212.01 178.41 213.48 178.72 214.96 178.44 216.44 178.72 217.91 178.44 219.39 178.72 220.86 178.44 222.34 178.72 223.81 178.43 225.29 178.72 226.77 178.41 228.24 178.72"/>
      </g>
    </g>
  </g>
</g>
  <g class="guide ylabels" font-size="2.82" font-family="'PT Sans Caption','Helvetica Neue','Helvetica',sans-serif" fill="#6C606B" id="img-95fdd766-19">
    <text x="18.63" y="178.72" text-anchor="end" dy="0.35em">0</text>
    <text x="18.63" y="96.66" text-anchor="end" dy="0.35em">50</text>
    <text x="18.63" y="14.61" text-anchor="end" dy="0.35em">100</text>
  </g>
  <g font-size="3.88" font-family="'PT Sans','Helvetica Neue','Helvetica',sans-serif" fill="#564A55" stroke="#000000" stroke-opacity="0.000" id="img-95fdd766-20">
    <text x="8.81" y="94.66" text-anchor="middle" dy="0.35em" transform="rotate(-90, 8.81, 96.66)">Magnitude</text>
  </g>
  <g font-size="3.88" font-family="'PT Sans','Helvetica Neue','Helvetica',sans-serif" fill="#564A55" stroke="#000000" stroke-opacity="0.000" id="img-95fdd766-21">
    <text x="132.32" y="10.61" text-anchor="middle">MoreMics/</text>
  </g>
</g>
<defs>
  <clipPath id="img-95fdd766-4">
  <path d="M19.63,12.61 L 245 12.61 245 180.72 19.63 180.72" />
</clipPath>
</defs>
</svg>
