<?xml version="1.0" encoding="UTF-8"?>
<svg xmlns="http://www.w3.org/2000/svg"
     xmlns:xlink="http://www.w3.org/1999/xlink"
     xmlns:gadfly="http://www.gadflyjl.org/ns"
     version="1.2"
     width="250mm" height="200mm" viewBox="0 0 250 200"
     stroke="none"
     fill="#000000"
     stroke-width="0.3"
     font-size="3.88"
>
<g class="plotroot xscalable yscalable" id="img-16ff4f66-1">
  <g font-size="3.88" font-family="'PT Sans','Helvetica Neue','Helvetica',sans-serif" fill="#564A55" stroke="#000000" stroke-opacity="0.000" id="img-16ff4f66-2">
    <text x="132.32" y="188.39" text-anchor="middle" dy="0.6em">Time</text>
  </g>
  <g class="guide xlabels" font-size="2.82" font-family="'PT Sans Caption','Helvetica Neue','Helvetica',sans-serif" fill="#6C606B" id="img-16ff4f66-3">
    <text x="21.63" y="181.72" text-anchor="middle" dy="0.6em">0</text>
    <text x="95.42" y="181.72" text-anchor="middle" dy="0.6em">50</text>
    <text x="169.21" y="181.72" text-anchor="middle" dy="0.6em">100</text>
    <text x="243" y="181.72" text-anchor="middle" dy="0.6em">150</text>
  </g>
<g clip-path="url(#img-16ff4f66-4)">
  <g id="img-16ff4f66-5">
    <g pointer-events="visible" opacity="1" fill="#000000" fill-opacity="0.000" stroke="#000000" stroke-opacity="0.000" class="guide background" id="img-16ff4f66-6">
      <rect x="19.63" y="12.61" width="225.37" height="168.1"/>
    </g>
    <g class="guide ygridlines xfixed" stroke-dasharray="0.5,0.5" stroke-width="0.2" stroke="#D0D0E0" id="img-16ff4f66-7">
      <path fill="none" d="M19.63,178.72 L 245 178.72"/>
      <path fill="none" d="M19.63,124.01 L 245 124.01"/>
      <path fill="none" d="M19.63,69.31 L 245 69.31"/>
      <path fill="none" d="M19.63,14.61 L 245 14.61"/>
    </g>
    <g class="guide xgridlines yfixed" stroke-dasharray="0.5,0.5" stroke-width="0.2" stroke="#D0D0E0" id="img-16ff4f66-8">
      <path fill="none" d="M21.63,12.61 L 21.63 180.72"/>
      <path fill="none" d="M95.42,12.61 L 95.42 180.72"/>
      <path fill="none" d="M169.21,12.61 L 169.21 180.72"/>
      <path fill="none" d="M243,12.61 L 243 180.72"/>
    </g>
    <g class="plotpanel" id="img-16ff4f66-9">
      <g stroke-width="0.3" fill="#000000" fill-opacity="0.000" class="geometry" stroke-dasharray="none" stroke="#800080" id="img-16ff4f66-10">
        <path fill="none" d="M23.11,178.71 L 24.58 178.51 26.06 178.72 27.53 178.48 29.01 178.72 30.49 178.45 31.96 178.72 33.44 178.42 34.91 178.72 36.39 178.37 37.87 178.72 39.34 178.31 40.82 178.72 42.29 178.23 43.77 178.72 45.24 178.1 46.72 178.72 48.2 177.87 49.67 178.72 51.15 177.4 52.62 178.72 54.1 175.89 55.57 178.72 57.05 149.92 58.53 106.69 60 112.02 61.48 134.1 62.95 159.52 64.43 170.04 65.91 169.27 67.38 168.89 68.86 172.1 70.33 175.07 71.81 177.57 73.28 178.1 74.76 178.72 76.24 178.4 77.71 178.72 79.19 178.4 80.66 178.65 82.14 178.14 83.61 177.99 85.09 176.91 86.57 175.85 88.04 173.79 89.52 171.89 90.99 169.65 92.47 168.47 93.95 167.95 95.42 168.97 96.9 170.53 98.37 172.83 99.85 174.72 101.32 176.47 102.8 177.43 104.28 178.17 105.75 178.42 107.23 178.62 108.7 178.67 110.18 177.77 111.65 167.45 113.13 123.21 114.61 82.52 116.08 117.67 117.56 165.16 119.03 176.64 120.51 173.93 121.99 166.95 123.46 168.79 124.94 175.53 126.41 178.42 127.89 178.56 129.36 178.42 130.84 177.42 132.32 175.35 133.79 171.36 135.27 166.67 136.74 163.14 138.22 163.33 139.69 166.76 141.17 171.65 142.65 175.35 144.12 177.55 145.6 178.23 147.07 178.51 148.55 178.26 150.03 178.04 151.5 177.32 152.98 176.45 154.45 174.8 155.93 172.75 157.4 169.69 158.88 166.26 160.36 162.12 161.83 158.26 163.31 154.63 164.78 152.37 166.26 151.27 167.73 152.15 169.21 154.2 170.69 157.74 172.16 161.5 173.64 165.71 175.11 169.15 176.59 172.36 178.07 174.43 179.54 176.26 181.02 177.09 182.49 177.99 183.97 178.12 185.44 178.57 186.92 178.36 188.4 178.57 189.87 178.01 191.35 177.76 192.82 176.32 194.3 174.75 195.77 171.31 197.25 167.26 198.73 161.01 200.2 154.8 201.68 147.77 203.15 143.63 204.63 141.67 206.11 146.11 207.58 153.73 209.06 168.52 210.53 178.39 212.01 178.04 213.48 178.57 214.96 178.43 216.44 178.58 217.91 178.56 219.39 178.57 220.86 178.62 222.34 178.56 223.81 178.66 225.29 178.54 226.77 178.69 228.24 178.53"/>
      </g>
      <g stroke-width="0.3" fill="#000000" fill-opacity="0.000" class="geometry" stroke-dasharray="none" stroke="#A52A2A" id="img-16ff4f66-11">
        <path fill="none" d="M23.11,178.66 L 24.58 178.72 26.06 178.65 27.53 178.72 29.01 178.64 30.49 178.72 31.96 178.63 33.44 178.72 34.91 178.62 36.39 178.72 37.87 178.59 39.34 178.72 40.82 178.54 42.29 178.72 43.77 178.45 45.24 178.72 46.72 178.18 48.2 178.72 49.67 175.32 51.15 163.32 52.62 161.9 54.1 166.49 55.57 172.81 57.05 176.44 58.53 178.17 60 178.54 61.48 178.69 62.95 178.61 64.43 178.65 65.91 178.36 67.38 177.62 68.86 176.77 70.33 175.68 71.81 173.67 73.28 170.73 74.76 166.9 76.24 163.14 77.71 160.22 79.19 159.21 80.66 160.25 82.14 163.19 83.61 166.99 85.09 170.87 86.57 173.97 88.04 176.2 89.52 177.48 90.99 178.21 92.47 178.49 93.95 178.65 95.42 178.67 96.9 178.71 98.37 178.7 99.85 178.71 101.32 178.71 102.8 178.62 104.28 177.28 105.75 169.29 107.23 157.06 108.7 160.54 110.18 173.32 111.65 178.06 113.13 178.63 114.61 178.21 116.08 176.97 117.56 173.55 119.03 167.12 120.51 158.33 121.99 150.85 123.46 148.94 124.94 154.44 126.41 163.61 127.89 171.42 129.36 175.91 130.84 177.84 132.32 178.38 133.79 178.45 135.27 178.3 136.74 178.11 138.22 177.77 139.69 177.38 141.17 176.84 142.65 176.25 144.12 175.54 145.6 174.85 147.07 174.14 148.55 173.56 150.03 173.09 151.5 172.87 152.98 172.81 154.45 173.01 155.93 173.33 157.4 173.81 158.88 174.29 160.36 174.8 161.83 175.19 163.31 175.57 164.78 175.82 166.26 176.1 167.73 176.32 169.21 176.62 170.69 176.89 172.16 177.24 173.64 177.53 175.11 177.87 176.59 178.1 178.07 178.33 179.54 178.45 181.02 178.59 182.49 178.61 183.97 178.69 185.44 178.67 186.92 178.72 188.4 178.68 189.87 178.72 191.35 178.65 192.82 178.66 194.3 178.53 195.77 178.44 197.25 178.16 198.73 177.9 200.2 177.42 201.68 176.99 203.15 176.45 204.63 176.17 206.11 175.99 207.58 176.33 209.06 176.85 210.53 177.95 212.01 178.66 213.48 178.68 214.96 178.68 216.44 178.71 217.91 178.68 219.39 178.72 220.86 178.67 222.34 178.72 223.81 178.67 225.29 178.72 226.77 178.67 228.24 178.72"/>
      </g>
      <g stroke-width="0.3" fill="#000000" fill-opacity="0.000" class="geometry" stroke-dasharray="none" stroke="#808080" id="img-16ff4f66-12">
        <path fill="none" d="M23.11,178.59 L 24.58 178.72 26.06 178.57 27.53 178.72 29.01 178.56 30.49 178.72 31.96 178.54 33.44 178.72 34.91 178.52 36.39 178.72 37.87 178.5 39.34 178.72 40.82 178.46 42.29 178.72 43.77 178.41 45.24 178.72 46.72 178.33 48.2 178.72 49.67 178.2 51.15 178.72 52.62 177.93 54.1 178.72 55.57 177.17 57.05 178.72 58.53 170.79 60 106.28 61.48 85.24 62.95 106.79 64.43 140.34 65.91 163.87 67.38 174.33 68.86 177.86 70.33 178.38 71.81 178.46 73.28 178.47 74.76 178.19 76.24 177.96 77.71 177.31 79.19 176.66 80.66 175.68 82.14 174.94 83.61 174.29 85.09 174.26 86.57 174.55 88.04 175.36 89.52 176.18 90.99 177.1 92.47 177.69 93.95 178.21 95.42 178.4 96.9 178.6 98.37 178.6 99.85 178.68 101.32 178.64 102.8 178.7 104.28 178.65 105.75 178.7 107.23 178.67 108.7 178.7 110.18 178.71 111.65 178.46 113.13 173.96 114.61 140.85 116.08 71.72 117.56 68.77 119.03 137.98 120.51 172.95 121.99 177.98 123.46 177.12 124.94 175.67 126.41 173.53 127.89 172.29 129.36 172.26 130.84 173.89 132.32 175.77 133.79 177.43 135.27 178.19 136.74 178.6 138.22 178.61 139.69 178.68 141.17 178.56 142.65 178.57 144.12 178.39 145.6 178.3 147.07 178 148.55 177.75 150.03 177.25 151.5 176.77 152.98 176.04 154.45 175.35 155.93 174.52 157.4 173.9 158.88 173.31 160.36 173.11 161.83 173.09 163.31 173.52 164.78 174.06 166.26 174.91 167.73 175.66 169.21 176.52 170.69 177.13 172.16 177.73 173.64 178.04 175.11 178.38 176.59 178.46 178.07 178.64 179.54 178.61 181.02 178.71 182.49 178.63 183.97 178.69 185.44 178.53 186.92 178.49 188.4 178.15 189.87 177.82 191.35 177.07 192.82 176.27 194.3 175.02 195.77 173.89 197.25 172.63 198.73 172.07 200.2 171.96 201.68 173.13 203.15 174.79 204.63 177.76 206.11 178.63 207.58 178.62 209.06 178.63 210.53 178.68 212.01 178.62 213.48 178.7 214.96 178.62 216.44 178.71 217.91 178.62 219.39 178.71 220.86 178.61 222.34 178.72 223.81 178.6 225.29 178.72 226.77 178.59 228.24 178.72"/>
      </g>
      <g stroke-width="0.3" fill="#000000" fill-opacity="0.000" class="geometry" stroke-dasharray="none" stroke="#FFFF00" id="img-16ff4f66-13">
        <path fill="none" d="M23.11,178.57 L 24.58 178.72 26.06 178.57 27.53 178.72 29.01 178.56 30.49 178.72 31.96 178.55 33.44 178.72 34.91 178.53 36.39 178.72 37.87 178.5 39.34 178.71 40.82 178.47 42.29 178.7 43.77 178.42 45.24 178.66 46.72 178.32 48.2 178.51 49.67 177.86 51.15 172.67 52.62 168.88 54.1 172.2 55.57 173.02 57.05 178.72 58.53 155.37 60 130.36 61.48 135.87 62.95 151.35 64.43 167.29 65.91 174.5 67.38 178 68.86 178.26 70.33 178.56 71.81 178.05 73.28 177.63 74.76 176.12 76.24 174.06 77.71 170.45 79.19 166.19 80.66 161.24 82.14 157.36 83.61 155.05 85.09 155.6 86.57 158.29 88.04 162.82 89.52 167.47 90.99 171.78 92.47 174.73 93.95 176.81 95.42 177.76 96.9 178.4 98.37 178.5 99.85 178.71 101.32 178.62 102.8 178.72 104.28 178.28 105.75 175.61 107.23 168.94 108.7 167.86 110.18 174.3 111.65 177.28 113.13 169.48 114.61 138.13 116.08 115.25 117.56 142.45 119.03 171.15 120.51 176.69 121.99 174.36 123.46 167.8 124.94 157.93 126.41 147.79 127.89 143.17 129.36 147 130.84 156.78 132.32 166.9 133.79 173.63 135.27 176.69 136.74 177.4 138.22 176.96 139.69 175.75 141.17 173.91 142.65 171.28 144.12 167.97 145.6 164.01 147.07 159.85 148.55 155.83 150.03 152.64 151.5 150.6 152.98 150.15 154.45 151.15 155.93 153.54 157.4 156.74 158.88 160.46 160.36 164.06 161.83 167.43 163.31 170.21 164.78 172.54 166.26 174.25 167.73 175.64 169.21 176.54 170.69 177.3 172.16 177.68 173.64 178 175.11 177.92 176.59 177.69 178.07 176.79 179.54 175.35 181.02 172.67 182.49 168.93 183.97 163.61 185.44 157.56 186.92 151.06 188.4 146.18 189.87 143.76 191.35 146.17 192.82 152.87 194.3 164.88 195.77 177.51 197.25 178.14 198.73 178.57 200.2 178.4 201.68 178.67 203.15 178.49 204.63 178.7 206.11 178.53 207.58 178.71 209.06 178.55 210.53 178.71 212.01 178.56 213.48 178.72 214.96 178.57 216.44 178.72 217.91 178.58 219.39 178.72 220.86 178.58 222.34 178.72 223.81 178.58 225.29 178.72 226.77 178.58 228.24 178.72"/>
      </g>
      <g stroke-width="0.3" fill="#000000" fill-opacity="0.000" class="geometry" stroke-dasharray="none" stroke="#FFA500" id="img-16ff4f66-14">
        <path fill="none" d="M23.11,178.61 L 24.58 178.72 26.06 178.6 27.53 178.72 29.01 178.58 30.49 178.72 31.96 178.57 33.44 178.72 34.91 178.55 36.39 178.72 37.87 178.52 39.34 178.26 40.82 176.77 42.29 177.3 43.77 177.32 45.24 178.45 46.72 178.09 48.2 178.72 49.67 178.02 51.15 178.72 52.62 177.29 54.1 178.72 55.57 167.89 57.05 142.22 58.53 141.91 60 152.92 61.48 166.92 62.95 174.18 64.43 177.79 65.91 178.33 67.38 178.7 68.86 178.43 70.33 178.52 71.81 178.02 73.28 177.71 74.76 176.73 76.24 175.89 77.71 174.6 79.19 173.79 80.66 173.1 82.14 173.3 83.61 173.8 85.09 174.94 86.57 175.94 88.04 177.05 89.52 177.69 90.99 178.27 92.47 178.41 93.95 178.41 95.42 177.37 96.9 176.48 98.37 177.17 99.85 178.39 101.32 178.63 102.8 178.72 104.28 178.68 105.75 178.72 107.23 178.71 108.7 178.4 110.18 174.45 111.65 153.98 113.13 128.52 114.61 141.43 116.08 168.93 117.56 177.36 119.03 177.8 120.51 176.2 121.99 174.04 123.46 171.49 124.94 170.33 126.41 170.91 127.89 173.07 129.36 175.15 130.84 176.5 132.32 176.75 133.79 176.48 135.27 175.82 136.74 175.2 138.22 174.55 139.69 174.19 141.17 173.95 142.65 174.06 144.12 174.29 145.6 174.75 147.07 175.17 148.55 175.67 150.03 176 151.5 176.35 152.98 176.53 154.45 176.78 155.93 176.9 157.4 177.14 158.88 177.27 160.36 177.53 161.83 177.67 163.31 177.91 164.78 177.96 166.26 178.07 167.73 177.89 169.21 177.66 170.69 177.03 172.16 176.28 173.64 175.11 175.11 173.99 176.59 172.76 178.07 172.17 179.54 172.01 181.02 173.1 182.49 174.7 183.97 177.61 185.44 178.67 186.92 178.62 188.4 178.67 189.87 178.69 191.35 178.67 192.82 178.71 194.3 178.66 195.77 178.72 197.25 178.66 198.73 178.72 200.2 178.66 201.68 178.72 203.15 178.66 204.63 178.72 206.11 178.65 207.58 178.72 209.06 178.65 210.53 178.72 212.01 178.65 213.48 178.72 214.96 178.64 216.44 178.72 217.91 178.64 219.39 178.72 220.86 178.63 222.34 178.72 223.81 178.62 225.29 178.72 226.77 178.62 228.24 178.72"/>
      </g>
      <g stroke-width="0.3" fill="#000000" fill-opacity="0.000" class="geometry" stroke-dasharray="none" stroke="#000000" id="img-16ff4f66-15">
        <path fill="none" d="M23.11,178.67 L 24.58 178.68 26.06 178.68 27.53 178.67 29.01 178.68 30.49 178.66 31.96 178.68 33.44 178.65 34.91 178.68 36.39 178.64 37.87 178.68 39.34 178.62 40.82 178.68 42.29 178.57 43.77 178.67 45.24 178.32 46.72 175.52 48.2 174.22 49.67 174.89 51.15 170.78 52.62 169.92 54.1 172.34 55.57 175.31 57.05 177.4 58.53 178.13 60 178.2 61.48 177.44 62.95 176.11 64.43 173.46 65.91 169.51 67.38 164.09 68.86 158.13 70.33 152.71 71.81 149.47 73.28 149.28 74.76 152.32 76.24 157.54 77.71 163.57 79.19 169.02 80.66 173.19 82.14 175.89 83.61 177.43 85.09 178.18 86.57 178.52 88.04 178.64 89.52 178.69 90.99 178.7 92.47 178.7 93.95 178.71 95.42 178.7 96.9 178.71 98.37 178.69 99.85 178.53 101.32 177.13 102.8 174.04 104.28 173.26 105.75 173.51 107.23 168.93 108.7 167.89 110.18 170.71 111.65 166.63 113.13 155.26 114.61 142.15 116.08 134.43 117.56 137.21 119.03 148.53 120.51 161.72 121.99 171.24 123.46 176.13 124.94 177.88 126.41 178.32 127.89 178.2 129.36 177.99 130.84 177.52 132.32 176.98 133.79 176.13 135.27 175.13 136.74 173.72 138.22 172.07 139.69 169.91 141.17 167.45 142.65 164.49 144.12 161.37 145.6 158.06 147.07 155.15 148.55 152.76 150.03 151.56 151.5 151.52 152.98 153.03 154.45 155.61 155.93 159.22 157.4 163.06 158.88 166.99 160.36 170.32 161.83 173.19 163.31 175.16 164.78 176.69 166.26 177.5 167.73 178.16 169.21 178.35 170.69 178.61 172.16 178.52 173.64 178.6 175.11 178.26 176.59 177.97 178.07 176.96 179.54 175.63 181.02 173.01 182.49 169.62 183.97 164.61 185.44 159.2 186.92 153.25 188.4 149.11 189.87 147.05 191.35 149.75 192.82 155.92 194.3 167.37 195.77 177.98 197.25 178.17 198.73 178.62 200.2 178.45 201.68 178.67 203.15 178.54 204.63 178.69 206.11 178.58 207.58 178.69 209.06 178.61 210.53 178.69 212.01 178.63 213.48 178.69 214.96 178.64 216.44 178.69 217.91 178.65 219.39 178.69 220.86 178.66 222.34 178.69 223.81 178.67 225.29 178.68 226.77 178.67 228.24 178.68"/>
      </g>
      <g stroke-width="0.3" fill="#000000" fill-opacity="0.000" class="geometry" stroke-dasharray="none" stroke="#0000FF" id="img-16ff4f66-16">
        <path fill="none" d="M23.11,178.35 L 24.58 178.72 26.06 178.29 27.53 178.72 29.01 178.22 30.49 178.72 31.96 178.12 33.44 178.72 34.91 177.96 36.39 178.72 37.87 177.68 39.34 178.72 40.82 177.08 42.29 178.72 43.77 174.4 45.24 178.72 46.72 153.76 48.2 95.23 49.67 93.85 51.15 118.82 52.62 151.07 54.1 168.04 55.57 176.49 57.05 177.83 58.53 178.72 60 178.29 61.48 178.72 62.95 178.29 64.43 178.66 65.91 177.91 67.38 177.6 68.86 175.68 70.33 173.27 71.81 168.52 73.28 162.85 74.76 155.64 76.24 149.58 77.71 145.16 79.19 144.79 80.66 147.6 82.14 153.64 83.61 160.32 85.09 166.96 86.57 171.74 88.04 175.24 89.52 176.96 90.99 178.09 92.47 178.36 93.95 178.67 95.42 178.62 96.9 178.67 98.37 178.18 99.85 175.8 101.32 166.2 102.8 122.66 104.28 64.97 105.75 91.79 107.23 155.29 108.7 176.1 110.18 178.72 111.65 178.47 113.13 178.55 114.61 177.28 116.08 174.31 117.56 166.54 119.03 153.7 120.51 138.22 121.99 128.35 123.46 129.87 124.94 142.21 126.41 157.38 127.89 169.09 129.36 175.05 130.84 177.34 132.32 177.54 133.79 177.16 135.27 176.17 136.74 175.03 138.22 173.36 139.69 171.64 141.17 169.58 142.65 167.76 144.12 165.96 145.6 164.76 147.07 163.86 148.55 163.72 150.03 163.92 151.5 164.79 152.98 165.81 154.45 167.31 155.93 168.73 157.4 170.43 158.88 171.86 160.36 173.42 161.83 174.58 163.31 175.77 164.78 176.52 166.26 177.29 167.73 177.61 169.21 177.98 170.69 177.86 172.16 177.74 173.64 177.03 175.11 176.18 176.59 174.65 178.07 173.02 179.54 170.98 181.02 169.42 182.49 168.33 183.97 168.62 185.44 170.19 186.92 173.24 188.4 177.42 189.87 178.72 191.35 178.45 192.82 178.72 194.3 178.52 195.77 178.72 197.25 178.53 198.73 178.72 200.2 178.54 201.68 178.72 203.15 178.53 204.63 178.72 206.11 178.52 207.58 178.72 209.06 178.51 210.53 178.72 212.01 178.5 213.48 178.72 214.96 178.49 216.44 178.72 217.91 178.47 219.39 178.72 220.86 178.45 222.34 178.72 223.81 178.42 225.29 178.72 226.77 178.39 228.24 178.72"/>
      </g>
      <g stroke-width="0.3" fill="#000000" fill-opacity="0.000" class="geometry" stroke-dasharray="none" stroke="#FF0000" id="img-16ff4f66-17">
        <path fill="none" d="M23.11,178.7 L 24.58 178.68 26.06 178.71 27.53 178.67 29.01 178.71 30.49 178.67 31.96 178.71 33.44 178.66 34.91 178.71 36.39 178.64 37.87 178.72 39.34 178.62 40.82 178.72 42.29 178.58 43.77 178.72 45.24 178.44 46.72 178.63 48.2 175.22 49.67 172.99 51.15 174.19 52.62 175.97 54.1 177.73 55.57 177.96 57.05 178.01 58.53 178.04 60 178.38 61.48 178.51 62.95 178.68 64.43 178.67 65.91 178.72 67.38 178.68 68.86 178.72 70.33 178.69 71.81 178.72 73.28 178.69 74.76 178.72 76.24 178.7 77.71 178.72 79.19 178.7 80.66 178.71 82.14 178.68 83.61 178.66 85.09 178.58 86.57 178.45 88.04 178.22 89.52 177.88 90.99 177.46 92.47 177.02 93.95 176.69 95.42 176.53 96.9 176.63 98.37 176.91 99.85 177.35 101.32 177.6 102.8 176.51 104.28 172.72 105.75 171.53 107.23 175.48 108.7 178.18 110.18 178.51 111.65 178.11 113.13 177.81 114.61 178.25 116.08 178.62 117.56 178.71 119.03 178.7 120.51 178.72 121.99 178.7 123.46 178.72 124.94 178.7 126.41 178.72 127.89 178.68 129.36 178.67 130.84 178.55 132.32 178.34 133.79 177.75 135.27 176.71 136.74 175.08 138.22 173.26 139.69 171.58 141.17 170.35 142.65 169.2 144.12 167.94 145.6 166.44 147.07 165.17 148.55 164.41 150.03 164.53 151.5 165.43 152.98 167.09 154.45 169.09 155.93 171.27 157.4 173.2 158.88 174.88 160.36 176.07 161.83 176.95 163.31 177.43 164.78 177.77 166.26 177.87 167.73 177.99 169.21 177.96 170.69 178 172.16 177.87 173.64 177.73 175.11 177.22 176.59 176.42 178.07 174.88 179.54 172.68 181.02 169.5 182.49 165.79 183.97 161.76 185.44 158.57 186.92 156.89 188.4 158.02 189.87 162.03 191.35 169.07 192.82 177.5 194.3 178.46 195.77 178.55 197.25 178.58 198.73 178.64 200.2 178.63 201.68 178.67 203.15 178.65 204.63 178.68 206.11 178.66 207.58 178.68 209.06 178.67 210.53 178.68 212.01 178.68 213.48 178.69 214.96 178.69 216.44 178.69 217.91 178.69 219.39 178.69 220.86 178.69 222.34 178.68 223.81 178.7 225.29 178.68 226.77 178.7 228.24 178.68"/>
      </g>
      <g stroke-width="0.3" fill="#000000" fill-opacity="0.000" class="geometry" stroke-dasharray="none" stroke="#008000" id="img-16ff4f66-18">
        <path fill="none" d="M23.11,178.61 L 24.58 178.68 26.06 178.6 27.53 178.68 29.01 178.59 30.49 178.68 31.96 178.58 33.44 178.68 34.91 178.56 36.39 178.68 37.87 178.53 39.34 178.68 40.82 178.49 42.29 178.68 43.77 178.42 45.24 178.66 46.72 178.29 48.2 178.61 49.67 177.87 51.15 178.17 52.62 151.83 54.1 137.61 55.57 144.49 57.05 158.09 58.53 163.18 60 161.82 61.48 162.67 62.95 162.18 64.43 162.18 65.91 161.2 67.38 161.85 68.86 163.34 70.33 166.59 71.81 169.83 73.28 173.15 74.76 175.39 76.24 177.1 77.71 177.86 79.19 178.42 80.66 178.51 82.14 178.68 83.61 178.62 85.09 178.71 86.57 178.64 88.04 178.71 89.52 178.65 90.99 178.71 92.47 178.66 93.95 178.71 95.42 178.67 96.9 178.71 98.37 178.67 99.85 178.68 101.32 178.52 102.8 177.97 104.28 176.16 105.75 170.87 107.23 153.29 108.7 116.4 110.18 102.63 111.65 132.14 113.13 155.47 114.61 160.02 116.08 162.92 117.56 171.64 119.03 177.29 120.51 178.4 121.99 178.45 123.46 178.28 124.94 178.07 126.41 177.75 127.89 177.37 129.36 176.86 130.84 176.31 132.32 175.68 133.79 175.08 135.27 174.48 136.74 174.04 138.22 173.69 139.69 173.56 141.17 173.53 142.65 173.66 144.12 173.73 145.6 173.71 147.07 173.29 148.55 172.4 150.03 170.79 151.5 168.54 152.98 165.64 154.45 162.5 155.93 159.44 157.4 157.1 158.88 155.8 160.36 155.93 161.83 157.35 163.31 159.99 164.78 163.23 166.26 166.77 167.73 170 169.21 172.82 170.69 174.9 172.16 176.47 173.64 177.41 175.11 178.06 176.59 178.34 178.07 178.56 179.54 178.56 181.02 178.57 182.49 178.33 183.97 177.99 185.44 177.12 186.92 175.73 188.4 173.27 189.87 169.7 191.35 164.66 192.82 158.65 194.3 152.2 195.77 146.84 197.25 143.97 198.73 145.31 200.2 151.51 201.68 162.22 203.15 176.17 204.63 178.4 206.11 178.35 207.58 178.54 209.06 178.53 210.53 178.59 212.01 178.59 213.48 178.62 214.96 178.61 216.44 178.64 217.91 178.62 219.39 178.65 220.86 178.62 222.34 178.66 223.81 178.62 225.29 178.67 226.77 178.62 228.24 178.67"/>
      </g>
    </g>
  </g>
</g>
  <g class="guide ylabels" font-size="2.82" font-family="'PT Sans Caption','Helvetica Neue','Helvetica',sans-serif" fill="#6C606B" id="img-16ff4f66-19">
    <text x="18.63" y="178.72" text-anchor="end" dy="0.35em">0</text>
    <text x="18.63" y="124.01" text-anchor="end" dy="0.35em">50</text>
    <text x="18.63" y="69.31" text-anchor="end" dy="0.35em">100</text>
    <text x="18.63" y="14.61" text-anchor="end" dy="0.35em">150</text>
  </g>
  <g font-size="3.88" font-family="'PT Sans','Helvetica Neue','Helvetica',sans-serif" fill="#564A55" stroke="#000000" stroke-opacity="0.000" id="img-16ff4f66-20">
    <text x="8.81" y="94.66" text-anchor="middle" dy="0.35em" transform="rotate(-90, 8.81, 96.66)">Magnitude</text>
  </g>
  <g font-size="3.88" font-family="'PT Sans','Helvetica Neue','Helvetica',sans-serif" fill="#564A55" stroke="#000000" stroke-opacity="0.000" id="img-16ff4f66-21">
    <text x="132.32" y="10.61" text-anchor="middle">MoreMics/</text>
  </g>
</g>
<defs>
  <clipPath id="img-16ff4f66-4">
  <path d="M19.63,12.61 L 245 12.61 245 180.72 19.63 180.72" />
</clipPath>
</defs>
</svg>
